<svg xmlns="http://www.w3.org/2000/svg" version="1.2" baseProfile="tiny" viewBox="0 0 1080 322"><g stroke-width="2" fill="none" stroke="gray"><path vector-effect="non-scaling-stroke" d="M195.69 66.94q-11.33 13.49-10.29 30.13a.54.52-1.7 00.54.49q14.95-.08 25.72-10.4 15.33-14.68 14.35-35.88a.6.6 84.4 00-.69-.57q-18.13 2.53-29.63 16.23m373.07-13.18a.26.26 0 00-.26-.26h-7.74a.26.26 0 00-.26.26v54.48a.26.26 0 00.26.26h7.74a.26.26 0 00.26-.26V53.76m128.32 20.58q-6.3-6.12-14.02-3.98-4.22 1.16-7.35 4.55-3.14 3.39-4.39 7.81-1.48 5.22-.85 11.12.66 6.21 4.59 10.6 4.64 5.16 11.69 4.94 6.47-.21 11.21-6 .34-.41.39.11l.44 4.45a.58.5 86.5 00.52.53l6.51-.11a.55.49 89.5 00.48-.55l-.29-53.15a1.07.96 89.2 00-.98-1.06l-6.98.13a.54.47 87.8 00-.46.57q.5 9.95-.12 19.89-.03.49-.39.15m202.48 1.36l-.06-21.64a.56.55 90 00-.55-.56h-7.19a.51.51 89.6 00-.51.51l.06 53.93a.52.51 90 00.51.52l7.11-.01a.52.51-90 00.51-.52q.11-10.96.06-21.93-.03-6.55 5.41-8.39 2.92-.99 5.69-.05 3.33 1.14 4.4 4.35.46 1.37.66 7.73.28 9.06-.16 18.16a.66.66-88.4 00.66.7h7.18a.65.64.4 00.65-.63q.19-12.62-.37-24.36-.38-8.12-6.21-11.67-4.3-2.62-9.17-1.72-5.14.95-8.4 5.66-.28.4-.28-.08M386.61 99.35q1.95-2.19 3.06-4.92 2.94-7.21 2.63-14.69-.35-8.21-4.16-13.85-3.19-4.71-8.5-7.16-4.01-1.85-10.51-2.45-8.95-.82-18.74.68a.76.76 85.6 00-.64.75v49.92a.58.57 3.4 00.51.57q8.86.95 17.25.39 11.53-.75 19.1-9.24m484.45-22.3l7.92-.04a.53.51-.6 00.52-.51v-5.22a.85.79 0 00-.85-.79l-7.65.03a.73.7 89.6 01-.7-.72l-.05-7.81a.41.41-8.1 00-.52-.39l-6.85 1.93a1.2 1.2-7.4 00-.88 1.14l-.04 5.26a.57.55 88.9 01-.52.56l-4.26.2a.57.49-.7 00-.55.48l-.1 5.27a.53.51.5 00.53.52l4.05.03a.92.9.6 01.91.91q-.2 10.36.39 19.84.93 14.69 15.98 10.74a1.03 1.02-9.8 00.76-1.07l-.35-4.55a.76.76-4.8 00-.83-.7q-5.46.49-6.93-2.8-.49-1.08-.72-6.28-.34-7.76.21-15.52a.54.53-88.3 01.53-.51m-350.59-1.36l-.46-4.17a1.18 1.08 85.2 00-1.15-1.06l-5.8.33a.51.51-2.3 00-.48.52l.24 36.37a.58.5-89 00.48.58l7.4.21a.53.47-89 00.49-.53q.11-11.35.25-22.69.08-6.48 5.62-7.94 5.75-1.51 8.42 2.41 1.5 2.21 1.65 7.39.27 9.87.1 20.55a.79.74-90 00.75.8l7.09-.1a.55.5 89.5 00.49-.55q-.1-10.65.07-21.31.11-6.37-2.94-11.19-3.92-6.19-11.69-5.35-6.44.7-10.15 5.83-.32.44-.38-.1m277.35.01l-.51-4.65a.61.51-3.7 00-.62-.45l-5.94.16a.5.48-1.2 00-.49.49l.3 36.68a.53.5 89.4 00.5.52l7.14.05a.56.55-90 00.55-.56V89.58q0-5.77 1.01-8.03 2.08-4.69 7.94-4.45 2.27.1 3.77 1.11 1.8 1.21 2.53 3.29 1.09 3.13.99 7.26-.24 9.49-.24 19.22a.52.52 90 00.52.52h7.3a.67.67-89.6 00.67-.66q.15-11.49-.17-22.28-.07-2.36-.42-4.09-.48-2.48-1.15-3.97-3.61-8.06-11.94-7.69-6.67.3-11.43 5.99-.26.31-.31-.1m171.31 15.39q.86-5.89-.83-10.81-1.85-5.36-6.33-8.19-5.71-3.6-13.24-1.25-6.31 1.96-9.42 7.47-4.07 7.22-2.95 15.14.81 5.69 3.79 9.42 3.46 4.33 9.29 5.44 8.47 1.61 17.53-1.22a.59.56-14.6 00.4-.64l-.98-4.91a.5.48-13.7 00-.62-.36q-5.39 1.57-10.52 1.39-9.59-.33-11.23-9.86a.83.82-4.7 01.82-.96h23.52a.78.78 4.3 00.77-.66m-320.19-6.93q-7.18-.27-13.4 2.69-4.12 1.97-6.06 5.01-2.42 3.77-1.59 8.19.88 4.64 4.55 7.21 3.81 2.66 9.06 1.99 5.04-.64 8.36-4.55.35-.4.48.09l.86 3.16a.68.63 81.6 00.62.5l6.34.04a.47.46 87.2 00.46-.52q-.82-7.73-.66-14.97.21-9.57-.46-12.5-2.31-10.09-13-10.5-7.41-.29-13.55 2.77a.62.59-21.4 00-.33.71l1.27 4.48a.45.44-21.6 00.62.26q3.23-1.63 6.58-2.18 4.09-.68 6.74.49 3.98 1.75 3.65 7.16a.52.5 2.9 01-.54.47m-229.596 25.32a19.8 18.5 94.1 0019.869-18.427 19.8 18.5 94.1 00-17.037-21.072 19.8 18.5 94.1 00-19.869 18.426 19.8 18.5 94.1 0017.037 21.072M585.47 76.96q-3.78 4.66-4.03 11.98-.23 6.71 2.58 11.7 2.91 5.17 8.52 7.47 4.58 1.88 9.6 1.07 4.68-.75 8.53-3.77 8.16-6.39 7.01-18.15-1.08-11.05-9.7-15.18-5.74-2.75-11.74-1.69-6.34 1.12-10.77 6.57m159.99-.01q-3.77 4.67-4.02 11.99-.23 6.71 2.58 11.7 2.9 5.16 8.52 7.47 4.79 1.97 9.99 1 5.07-.95 8.75-4.07 4.54-3.85 5.97-10.29 2.43-10.96-4.09-18.64-2.22-2.62-4.93-4.01-2.89-1.49-6.23-1.84-10.25-1.09-16.54 6.69M462.81 99.7l-6.37-27.39q-.36-1.55-2.69-1.56l-5.56-.02a.4.37 81.1 00-.34.51l10.84 36.68a.81.81-8.1 00.78.58h6.78a.67.67-32.1 00.64-.48l7.45-26.04q.47-1.68.93.01l7.03 25.85a.71.65 82.3 00.63.52l7.01.11a.71.65-81.1 00.64-.51l11.09-36.51a.63.61 7.9 00-.61-.79l-6.62.09a.67.66 7 00-.63.49l-7 27.59q-.49 1.91-1-.01l-7.36-27.66a.66.66-7.4 00-.64-.49h-5.63a.68.65-81.7 00-.63.49l-8.47 28.54q-.15.51-.27 0m-278.25 9.49q-4.62-.92-11.88-3.76-8.42-3.29-11.75-3.96-7.17-1.42-13.93-.47-14.53 2.04-25.14 11.49-6.95 6.19-11.94 15.9-9.34 18.19-7.42 39.36 2.93 32.3 20.31 60.14 5.89 9.43 13.78 17.27 3.78 3.76 9.1 6.9 6.35 3.76 13.39 2.62 5.77-.93 9.36-2.74 19.86-10.02 40.05-.74 6.76 3.1 13.51 3.3 7.19.21 13.48-4 6.22-4.16 9.71-8.31 15.25-18.14 23-41a.73.72 22.2 00-.38-.89q-21.96-10.28-26.08-34.09-1.67-9.7.08-16.65 4.75-18.82 20.83-28.94a.59.58-35.4 00.15-.86q-11.36-14.38-28.15-18.47-7.05-1.72-14.01-1.27-7.11.45-13.93 2.95-5.14 1.89-10.29 3.76-.08.03-3.16 1.27-4.85 1.95-8.69 1.19m462.62 47.24q-4.49 4.78-5.93 10.32-3.65 14.06 4.37 24.23 3.79 4.8 11.37 9.25 6.38 3.75 13.44 6.23 7.48 2.63 10.76 5.6 7.17 6.53 5.69 15.04-1 5.74-5.62 9.32-5.02 3.88-12.01 4.16-14.06.56-26.17-6.38a.52.51 23.3 00-.75.29l-3.78 12.96a.67.65 23 00.32.75q6.26 3.41 12.88 4.85 6.22 1.35 13.55 1.46 9.75.14 19.11-3.16 11.81-4.16 16.84-14.35 4.22-8.54 2.83-17.88-1.13-7.64-5.91-13.7-4.77-6.05-12.02-9.65-5.46-2.71-11.12-5-5.64-2.27-10.72-5.57-6.19-4.01-6.88-10.37-.66-6.05 3.55-10.6 4.27-4.61 11.51-5.07 11.87-.76 23.02 4.49a.45.45-68.2 00.62-.27l4.1-12.57a.74.73-69.7 00-.41-.91q-16.85-7.08-34.31-3.61-10.83 2.15-18.33 10.14m-273.58-9.5l-34.32 105.74a.25.24-80.6 00.23.33h16.46a1.09 1.08-81.2 001.03-.76l9.29-29.83a.68.68-81.3 01.65-.48l33.5-.17a1.04 1.02 81.1 01.98.73l9.25 29.98a.68.67 81.1 00.64.48l17.4-.01a.32.31 81 00.29-.41l-34.1-105.31a.68.67-8.9 00-.64-.46l-20.15-.19a.54.53 9 00-.51.36m368.46 28.77l-.06-18.02a.48.47 81.2 00-.62-.46L726 162a1.08 1.08 81.2 00-.75 1.03v12.7a.52.52-90 01-.52.52h-9.93a.8.8-89.9 00-.8.8v11.41a.56.55.5 00.55.55l10.13.04a.52.51-90 01.51.52q.11 17.09 0 34.18-.06 9.62 1.06 14.5 3.73 16.17 19.47 16.22 3.34.01 6.69-.31 3.5-.33 6.58-1.4a1.05.95-11.1 00.71-.95l-.33-11.37a.46.44-5.6 00-.54-.42q-7.02 1.13-9.08.48-6.55-2.08-7.39-8.98-.35-2.87-.35-5.77Q742 208 742 189.56a.56.56 89.8 01.56-.56h17.39a.8.8-89.9 00.8-.8v-11.28a.67.67 90 00-.67-.67l-17.52-.06a.5.49 0 01-.5-.49m38.47 11.07q-6.83 7.55-9.03 18.73-3.05 15.53 2.9 28.4 4.44 9.6 12.74 15.03 8.85 5.79 20.11 5.82 13.01.04 22.73-7.18 7.81-5.79 12.03-15.62 5.11-11.88 3.01-24.79-1.72-10.63-7.37-18.37-6.43-8.8-16.87-12.28-9.82-3.27-19.75-1.46-11.85 2.17-20.5 11.72m-321.26 1.35l-.77-10.99a.94.88 87.9 00-.88-.88l-13.81.06a.49.49 89.4 00-.49.5q.08 5.74.36 11.47.32 6.73.32 11.46v83.7a.81.81 0 00.81.81h15.67a.8.78-89.6 00.78-.79l.23-38.46q0-.5.32-.11 7.73 9.39 20.19 9.57 13.53.2 22.37-7.81 6.72-6.08 10.35-16.84 5.75-17-1.15-34.96-3.7-9.64-10.88-14.79-11.11-7.96-25.46-4.39-10.67 2.65-17.55 12.55-.36.53-.41-.1m88.27 0l-.76-10.98a.93.92 88 00-.92-.87l-13.67.14a.5.49 88.3 00-.48.52q.21 6.11.49 12.22.3 6.49.3 12.21v82.33a.56.55 90 00.55.56l15.88-.06a.51.5 0 00.51-.5l.12-38.89q.01-1.23.67-.19 2.97 4.6 8.33 7.09 8.07 3.73 16.95 2.62 9.01-1.12 15.66-6.32 6-4.68 9.83-12.92 5.78-12.44 4.25-27.83-1.35-13.61-9.19-22.56-8.12-9.28-20.56-9.87-17.35-.83-27.5 13.43-.41.58-.46-.13m328 2.58l-.93-13.76a.57.55 87.8 00-.55-.53l-13.37-.01a.53.5-90 00-.5.53l.31 75.42a.65.64 90 00.64.65H877a.51.51 0 00.51-.51q-.19-22.12.24-43.24.15-7.47 5.2-13.08 3.23-3.58 7.58-4.85 4.57-1.33 9.36-.39a.71.7 5.4 00.85-.69l-.05-14.68a.58.57 4 00-.5-.57q-12.46-1.65-20.13 8.07-1.44 1.83-4.28 7.67-.21.44-.24-.03m50.78 27.86l49.71-.06a.63.62-86.9 00.62-.56q1.04-9.78-.78-18.47-1.72-8.26-6.81-14.34-4.99-5.98-12.62-8.63-8.98-3.13-18.95-1.05-14.26 2.97-21.18 14.61-10.56 17.78-5.59 36.97 2.81 10.8 9.34 17.39 8.7 8.78 22.44 9.78 15.24 1.11 29.69-4.18a.62.57-16.9 00.4-.68l-2.27-10.8a.49.45-15.1 00-.62-.32q-12.08 3.95-22.95 3.03-20.23-1.71-20.92-22.18a.49.49 88.9 01.49-.51"/><path vector-effect="non-scaling-stroke" d="M679.81 83.55q-2.51 5.9.07 12.53 1.83 4.72 5.99 5.97 3.94 1.2 7.48-1.07 3.36-2.15 4.01-6.4.32-2.12.34-5.66.01-2.9-.78-5.65-1.04-3.59-3.9-5.37-4.21-2.61-8.36-.14-3.2 1.9-4.85 5.79M379.56 95.31q3.4-4.89 3.87-10.75.5-6.25-1-11.05-1.46-4.66-5.49-7.45-3.28-2.27-8.31-3-4.95-.71-10.36.04a.59.58-4.4 00-.51.59l.17 37.63a.57.55 3.5 00.5.55q7.55.84 13.07-.87 5.25-1.62 8.06-5.69m567.13-16.12q-2.18 2.75-2.36 6a.49.48 1.7 00.49.51h16.12a.54.53-88.9 00.53-.52q.24-5.52-3.76-7.99-2.7-1.67-5.66-1.25-3.15.45-5.36 3.25M636.42 95.36q-.9 2.37.14 4.58 2.32 4.9 8.06 2.79 4.48-1.64 5.13-6.73.42-3.31.09-5.5a.72.71.6 00-.58-.59q-5.73-.96-10.13 2.14-2 1.41-2.71 3.31m-216.119 7.996a13.62 9.79 91.3 0010.096-13.394 13.62 9.79 91.3 00-9.478-13.838 13.62 9.79 91.3 00-10.096 13.394 13.62 9.79 91.3 009.478 13.838m178.794.001a13.63 9.8 91.2 0010.083-13.422 13.63 9.8 91.2 00-9.513-13.832 13.63 9.8 91.2 00-10.083 13.422 13.63 9.8 91.2 009.513 13.832m159.985-.001a13.63 9.8 91.3 0010.107-13.404 13.63 9.8 91.3 00-9.488-13.849 13.63 9.8 91.3 00-10.106 13.405 13.63 9.8 91.3 009.488 13.849M383.34 162.67l-13.47 44.95a.9.89 8.1 00.87 1.15l26.96-.33a.24.24 80.7 00.22-.31l-14.12-45.46q-.23-.75-.46 0m410.29 32.22q-3.62 4.7-4.94 11.05-2.31 11.02.8 21.31 1.82 6.05 6.45 10.31 5.33 4.89 12.09 4.71 4.04-.11 7.69-2.02 3.73-1.95 6.22-5.31 3.91-5.29 5.19-11.71 1.17-5.86.73-12.5-.58-8.76-5.42-15.67-5.53-7.89-14.96-7.54-4.22.16-7.66 2.03-3.6 1.96-6.19 5.34m-327.39-.16q-4.2 5.36-4.74 11.77-.66 7.91.1 17.49.87 11.02 9.49 15.32 4.49 2.23 9.61 1.96 5.44-.28 9.63-3.32 4.98-3.6 7.82-11.35 4.21-11.46.25-23.21-2.21-6.54-5.66-9.95-4.31-4.26-10.98-5.02-9.71-1.1-15.52 6.31m88.96-.79q-5.06 6.07-5.45 14.06-.19 3.91 0 11.04.19 7.12 1.55 10.87 3.97 11.01 15.94 11.24 5.88.11 10.48-2.82 5.01-3.19 7.52-8.53 2.58-5.48 3.06-13.33.43-6.97-1.86-13.82-2.06-6.15-6.5-10.09-4.19-3.71-9.6-4.16-4.39-.37-8.13.78-4.09 1.25-7.01 4.76m375.97-1.27q-4.58 5.74-5.45 13.32a.46.46 3.3 00.46.51l34.01-.06a.52.51-89.4 00.51-.51q.15-7.32-3.2-12.68-3.38-5.41-9.68-6.61-10.29-1.95-16.65 6.03"/></g><path d="M1080 57.06l-.04 208.49q-1.05 24.96-18.65 40.76-13.87 12.47-32.57 14.04-4.8.4-13.99.4-478.88 0-957.75.02-19.31 0-33.44-10.33Q1.59 294.37 0 265.69V56.19q1.06-21.06 14.06-35.88Q27.78 4.69 48.03 1.87q4.43-.62 19.96-.62h953.26q11.23 0 20.76 3.12 9.25 3.03 17.34 9.7 19.34 15.95 20.65 42.99zm-884.31 9.88q-11.33 13.49-10.29 30.13a.54.52-1.7 00.54.49q14.95-.08 25.72-10.4 15.33-14.68 14.35-35.88a.6.6 84.4 00-.69-.57q-18.13 2.53-29.63 16.23zm373.07-13.18a.26.26 0 00-.26-.26h-7.74a.26.26 0 00-.26.26v54.48a.26.26 0 00.26.26h7.74a.26.26 0 00.26-.26V53.76zm128.32 20.58q-6.3-6.12-14.02-3.98-4.22 1.16-7.35 4.55-3.14 3.39-4.39 7.81-1.48 5.22-.85 11.12.66 6.21 4.59 10.6 4.64 5.16 11.69 4.94 6.47-.21 11.21-6 .34-.41.39.11l.44 4.45a.58.5 86.5 00.52.53l6.51-.11a.55.49 89.5 00.48-.55l-.29-53.15a1.07.96 89.2 00-.98-1.06l-6.98.13a.54.47 87.8 00-.46.57q.5 9.95-.12 19.89-.03.49-.39.15zm202.48 1.36l-.06-21.64a.56.55 90 00-.55-.56h-7.19a.51.51 89.6 00-.51.51l.06 53.93a.52.51 90 00.51.52l7.11-.01a.52.51-90 00.51-.52q.11-10.96.06-21.93-.03-6.55 5.41-8.39 2.92-.99 5.69-.05 3.33 1.14 4.4 4.35.46 1.37.66 7.73.28 9.06-.16 18.16a.66.66-88.4 00.66.7h7.18a.65.64.4 00.65-.63q.19-12.62-.37-24.36-.38-8.12-6.21-11.67-4.3-2.62-9.17-1.72-5.14.95-8.4 5.66-.28.4-.28-.08zM386.61 99.35q1.95-2.19 3.06-4.92 2.94-7.21 2.63-14.69-.35-8.21-4.16-13.85-3.19-4.71-8.5-7.16-4.01-1.85-10.51-2.45-8.95-.82-18.74.68a.76.76 85.6 00-.64.75v49.92a.58.57 3.4 00.51.57q8.86.95 17.25.39 11.53-.75 19.1-9.24zm484.45-22.3l7.92-.04a.53.51-.6 00.52-.51v-5.22a.85.79 0 00-.85-.79l-7.65.03a.73.7 89.6 01-.7-.72l-.05-7.81a.41.41-8.1 00-.52-.39l-6.85 1.93a1.2 1.2-7.4 00-.88 1.14l-.04 5.26a.57.55 88.9 01-.52.56l-4.26.2a.57.49-.7 00-.55.48l-.1 5.27a.53.51.5 00.53.52l4.05.03a.92.9.6 01.91.91q-.2 10.36.39 19.84.93 14.69 15.98 10.74a1.03 1.02-9.8 00.76-1.07l-.35-4.55a.76.76-4.8 00-.83-.7q-5.46.49-6.93-2.8-.49-1.08-.72-6.28-.34-7.76.21-15.52a.54.53-88.3 01.53-.51zm-350.59-1.36l-.46-4.17a1.18 1.08 85.2 00-1.15-1.06l-5.8.33a.51.51-2.3 00-.48.52l.24 36.37a.58.5-89 00.48.58l7.4.21a.53.47-89 00.49-.53q.11-11.35.25-22.69.08-6.48 5.62-7.94 5.75-1.51 8.42 2.41 1.5 2.21 1.65 7.39.27 9.87.1 20.55a.79.74-90 00.75.8l7.09-.1a.55.5 89.5 00.49-.55q-.1-10.65.07-21.31.11-6.37-2.94-11.19-3.92-6.19-11.69-5.35-6.44.7-10.15 5.83-.32.44-.38-.1zm277.35.01l-.51-4.65a.61.51-3.7 00-.62-.45l-5.94.16a.5.48-1.2 00-.49.49l.3 36.68a.53.5 89.4 00.5.52l7.14.05a.56.55-90 00.55-.56V89.58q0-5.77 1.01-8.03 2.08-4.69 7.94-4.45 2.27.1 3.77 1.11 1.8 1.21 2.53 3.29 1.09 3.13.99 7.26-.24 9.49-.24 19.22a.52.52 90 00.52.52h7.3a.67.67-89.6 00.67-.66q.15-11.49-.17-22.28-.07-2.36-.42-4.09-.48-2.48-1.15-3.97-3.61-8.06-11.94-7.69-6.67.3-11.43 5.99-.26.31-.31-.1zm171.31 15.39q.86-5.89-.83-10.81-1.85-5.36-6.33-8.19-5.71-3.6-13.24-1.25-6.31 1.96-9.42 7.47-4.07 7.22-2.95 15.14.81 5.69 3.79 9.42 3.46 4.33 9.29 5.44 8.47 1.61 17.53-1.22a.59.56-14.6 00.4-.64l-.98-4.91a.5.48-13.7 00-.62-.36q-5.39 1.57-10.52 1.39-9.59-.33-11.23-9.86a.83.82-4.7 01.82-.96h23.52a.78.78 4.3 00.77-.66zm-320.19-6.93q-7.18-.27-13.4 2.69-4.12 1.97-6.06 5.01-2.42 3.77-1.59 8.19.88 4.64 4.55 7.21 3.81 2.66 9.06 1.99 5.04-.64 8.36-4.55.35-.4.48.09l.86 3.16a.68.63 81.6 00.62.5l6.34.04a.47.46 87.2 00.46-.52q-.82-7.73-.66-14.97.21-9.57-.46-12.5-2.31-10.09-13-10.5-7.41-.29-13.55 2.77a.62.59-21.4 00-.33.71l1.27 4.48a.45.44-21.6 00.62.26q3.23-1.63 6.58-2.18 4.09-.68 6.74.49 3.98 1.75 3.65 7.16a.52.5 2.9 01-.54.47zm-229.596 25.32a19.8 18.5 94.1 0019.869-18.427 19.8 18.5 94.1 00-17.037-21.072 19.8 18.5 94.1 00-19.869 18.426 19.8 18.5 94.1 0017.037 21.072zM585.47 76.96q-3.78 4.66-4.03 11.98-.23 6.71 2.58 11.7 2.91 5.17 8.52 7.47 4.58 1.88 9.6 1.07 4.68-.75 8.53-3.77 8.16-6.39 7.01-18.15-1.08-11.05-9.7-15.18-5.74-2.75-11.74-1.69-6.34 1.12-10.77 6.57zm159.99-.01q-3.77 4.67-4.02 11.99-.23 6.71 2.58 11.7 2.9 5.16 8.52 7.47 4.79 1.97 9.99 1 5.07-.95 8.75-4.07 4.54-3.85 5.97-10.29 2.43-10.96-4.09-18.64-2.22-2.62-4.93-4.01-2.89-1.49-6.23-1.84-10.25-1.09-16.54 6.69zM462.81 99.7l-6.37-27.39q-.36-1.55-2.69-1.56l-5.56-.02a.4.37 81.1 00-.34.51l10.84 36.68a.81.81-8.1 00.78.58h6.78a.67.67-32.1 00.64-.48l7.45-26.04q.47-1.68.93.01l7.03 25.85a.71.65 82.3 00.63.52l7.01.11a.71.65-81.1 00.64-.51l11.09-36.51a.63.61 7.9 00-.61-.79l-6.62.09a.67.66 7 00-.63.49l-7 27.59q-.49 1.91-1-.01l-7.36-27.66a.66.66-7.4 00-.64-.49h-5.63a.68.65-81.7 00-.63.49l-8.47 28.54q-.15.51-.27 0zm-278.25 9.49q-4.62-.92-11.88-3.76-8.42-3.29-11.75-3.96-7.17-1.42-13.93-.47-14.53 2.04-25.14 11.49-6.95 6.19-11.94 15.9-9.34 18.19-7.42 39.36 2.93 32.3 20.31 60.14 5.89 9.43 13.78 17.27 3.78 3.76 9.1 6.9 6.35 3.76 13.39 2.62 5.77-.93 9.36-2.74 19.86-10.02 40.05-.74 6.76 3.1 13.51 3.3 7.19.21 13.48-4 6.22-4.16 9.71-8.31 15.25-18.14 23-41a.73.72 22.2 00-.38-.89q-21.96-10.28-26.08-34.09-1.67-9.7.08-16.65 4.75-18.82 20.83-28.94a.59.58-35.4 00.15-.86q-11.36-14.38-28.15-18.47-7.05-1.72-14.01-1.27-7.11.45-13.93 2.95-5.14 1.89-10.29 3.76-.08.03-3.16 1.27-4.85 1.95-8.69 1.19zm462.62 47.24q-4.49 4.78-5.93 10.32-3.65 14.06 4.37 24.23 3.79 4.8 11.37 9.25 6.38 3.75 13.44 6.23 7.48 2.63 10.76 5.6 7.17 6.53 5.69 15.04-1 5.74-5.62 9.32-5.02 3.88-12.01 4.16-14.06.56-26.17-6.38a.52.51 23.3 00-.75.29l-3.78 12.96a.67.65 23 00.32.75q6.26 3.41 12.88 4.85 6.22 1.35 13.55 1.46 9.75.14 19.11-3.16 11.81-4.16 16.84-14.35 4.22-8.54 2.83-17.88-1.13-7.64-5.91-13.7-4.77-6.05-12.02-9.65-5.46-2.71-11.12-5-5.64-2.27-10.72-5.57-6.19-4.01-6.88-10.37-.66-6.05 3.55-10.6 4.27-4.61 11.51-5.07 11.87-.76 23.02 4.49a.45.45-68.2 00.62-.27l4.1-12.57a.74.73-69.7 00-.41-.91q-16.85-7.08-34.31-3.61-10.83 2.15-18.33 10.14zm-273.58-9.5l-34.32 105.74a.25.24-80.6 00.23.33h16.46a1.09 1.08-81.2 001.03-.76l9.29-29.83a.68.68-81.3 01.65-.48l33.5-.17a1.04 1.02 81.1 01.98.73l9.25 29.98a.68.67 81.1 00.64.48l17.4-.01a.32.31 81 00.29-.41l-34.1-105.31a.68.67-8.9 00-.64-.46l-20.15-.19a.54.53 9 00-.51.36zm368.46 28.77l-.06-18.02a.48.47 81.2 00-.62-.46L726 162a1.08 1.08 81.2 00-.75 1.03v12.7a.52.52-90 01-.52.52h-9.93a.8.8-89.9 00-.8.8v11.41a.56.55.5 00.55.55l10.13.04a.52.51-90 01.51.52q.11 17.09 0 34.18-.06 9.62 1.06 14.5 3.73 16.17 19.47 16.22 3.34.01 6.69-.31 3.5-.33 6.58-1.4a1.05.95-11.1 00.71-.95l-.33-11.37a.46.44-5.6 00-.54-.42q-7.02 1.13-9.08.48-6.55-2.08-7.39-8.98-.35-2.87-.35-5.77Q742 208 742 189.56a.56.56 89.8 01.56-.56h17.39a.8.8-89.9 00.8-.8v-11.28a.67.67 90 00-.67-.67l-17.52-.06a.5.49 0 01-.5-.49zm38.47 11.07q-6.83 7.55-9.03 18.73-3.05 15.53 2.9 28.4 4.44 9.6 12.74 15.03 8.85 5.79 20.11 5.82 13.01.04 22.73-7.18 7.81-5.79 12.03-15.62 5.11-11.88 3.01-24.79-1.72-10.63-7.37-18.37-6.43-8.8-16.87-12.28-9.82-3.27-19.75-1.46-11.85 2.17-20.5 11.72zm-321.26 1.35l-.77-10.99a.94.88 87.9 00-.88-.88l-13.81.06a.49.49 89.4 00-.49.5q.08 5.74.36 11.47.32 6.73.32 11.46v83.7a.81.81 0 00.81.81h15.67a.8.78-89.6 00.78-.79l.23-38.46q0-.5.32-.11 7.73 9.39 20.19 9.57 13.53.2 22.37-7.81 6.72-6.08 10.35-16.84 5.75-17-1.15-34.96-3.7-9.64-10.88-14.79-11.11-7.96-25.46-4.39-10.67 2.65-17.55 12.55-.36.53-.41-.1zm88.27 0l-.76-10.98a.93.92 88 00-.92-.87l-13.67.14a.5.49 88.3 00-.48.52q.21 6.11.49 12.22.3 6.49.3 12.21v82.33a.56.55 90 00.55.56l15.88-.06a.51.5 0 00.51-.5l.12-38.89q.01-1.23.67-.19 2.97 4.6 8.33 7.09 8.07 3.73 16.95 2.62 9.01-1.12 15.66-6.32 6-4.68 9.83-12.92 5.78-12.44 4.25-27.83-1.35-13.61-9.19-22.56-8.12-9.28-20.56-9.87-17.35-.83-27.5 13.43-.41.58-.46-.13zm328 2.58l-.93-13.76a.57.55 87.8 00-.55-.53l-13.37-.01a.53.5-90 00-.5.53l.31 75.42a.65.64 90 00.64.65H877a.51.51 0 00.51-.51q-.19-22.12.24-43.24.15-7.47 5.2-13.08 3.23-3.58 7.58-4.85 4.57-1.33 9.36-.39a.71.7 5.4 00.85-.69l-.05-14.68a.58.57 4 00-.5-.57q-12.46-1.65-20.13 8.07-1.44 1.83-4.28 7.67-.21.44-.24-.03zm50.78 27.86l49.71-.06a.63.62-86.9 00.62-.56q1.04-9.78-.78-18.47-1.72-8.26-6.81-14.34-4.99-5.98-12.62-8.63-8.98-3.13-18.95-1.05-14.26 2.97-21.18 14.61-10.56 17.78-5.59 36.97 2.81 10.8 9.34 17.39 8.7 8.78 22.44 9.78 15.24 1.11 29.69-4.18a.62.57-16.9 00.4-.68l-2.27-10.8a.49.45-15.1 00-.62-.32q-12.08 3.95-22.95 3.03-20.23-1.71-20.92-22.18a.49.49 88.9 01.49-.51z"/><path fill="#fff" d="M195.69 66.94q11.5-13.7 29.63-16.23a.6.6 84.4 01.69.57q.98 21.2-14.35 35.88-10.77 10.32-25.72 10.4a.54.52-1.7 01-.54-.49q-1.04-16.64 10.29-30.13z"/><rect fill="#fff" x="560.5" y="53.5" width="8.26" height="55" rx=".26"/><path fill="#fff" d="M697.47 74.19q.62-9.94.12-19.89a.54.47 87.8 01.46-.57l6.98-.13a1.07.96 89.2 01.98 1.06l.29 53.15a.55.49 89.5 01-.48.55l-6.51.11a.58.5 86.5 01-.52-.53l-.44-4.45q-.05-.52-.39-.11-4.74 5.79-11.21 6-7.05.22-11.69-4.94-3.93-4.39-4.59-10.6-.63-5.9.85-11.12 1.25-4.42 4.39-7.81 3.13-3.39 7.35-4.55 7.72-2.14 14.02 3.98.36.34.39-.15zm-17.66 9.36q-2.51 5.9.07 12.53 1.83 4.72 5.99 5.97 3.94 1.2 7.48-1.07 3.36-2.15 4.01-6.4.32-2.12.34-5.66.01-2.9-.78-5.65-1.04-3.59-3.9-5.37-4.21-2.61-8.36-.14-3.2 1.9-4.85 5.79zm220.03-7.77q3.26-4.71 8.4-5.66 4.87-.9 9.17 1.72 5.83 3.55 6.21 11.67.56 11.74.37 24.36a.65.64.4 01-.65.63h-7.18a.66.66-88.4 01-.66-.7q.44-9.1.16-18.16-.2-6.36-.66-7.73-1.07-3.21-4.4-4.35-2.77-.94-5.69.05-5.44 1.84-5.41 8.39.05 10.97-.06 21.93a.52.51 90 01-.51.52l-7.11.01a.52.51-90 01-.51-.52l-.06-53.93a.51.51 88.7 01.51-.51h7.19a.56.55 90 01.55.56l.06 21.64q0 .48.28.08zM386.61 99.35q-7.57 8.49-19.1 9.24-8.39.56-17.25-.39a.58.57 3.4 01-.51-.57V57.71a.76.76 85.6 01.64-.75q9.79-1.5 18.74-.68 6.5.6 10.51 2.45 5.31 2.45 8.5 7.16 3.81 5.64 4.16 13.85.31 7.48-2.63 14.69-1.11 2.73-3.06 4.92zm-7.05-4.04q3.4-4.89 3.87-10.75.5-6.25-1-11.05-1.46-4.66-5.49-7.45-3.28-2.27-8.31-3-4.95-.71-10.36.04a.59.58-4.4 00-.51.59l.17 37.63a.57.55 3.5 00.5.55q7.55.84 13.07-.87 5.25-1.62 8.06-5.69zm490.97-17.75q-.55 7.76-.21 15.52.23 5.2.72 6.28 1.47 3.29 6.93 2.8a.76.76-4.8 01.83.7l.35 4.55a1.03 1.02-9.8 01-.76 1.07q-15.05 3.95-15.98-10.74-.59-9.48-.39-19.84a.92.9.6 00-.91-.91l-4.05-.03a.53.51.5 01-.53-.52l.1-5.27a.57.49-.7 01.55-.48l4.26-.2a.57.55 88.9 00.52-.56l.04-5.26a1.2 1.2-7.4 01.88-1.14l6.85-1.93a.41.41-8.1 01.52.39l.05 7.81a.73.7 89.6 00.7.72l7.65-.03a.85.79 0 01.85.79v5.22a.53.51-.6 01-.52.51l-7.92.04a.54.53-88.3 00-.53.51z"/><path d="M379.56 95.31q-2.81 4.07-8.06 5.69-5.52 1.71-13.07.87a.57.55 3.5 01-.5-.55l-.17-37.63a.59.58-4.4 01.51-.59q5.41-.75 10.36-.04 5.03.73 8.31 3 4.03 2.79 5.49 7.45 1.5 4.8 1 11.05-.47 5.86-3.87 10.75z"/><path fill="#fff" d="M520.85 75.79q3.71-5.13 10.15-5.83 7.77-.84 11.69 5.35 3.05 4.82 2.94 11.19-.17 10.66-.07 21.31a.55.5 89.5 01-.49.55l-7.09.1a.79.74-90 01-.75-.8q.17-10.68-.1-20.55-.15-5.18-1.65-7.39-2.67-3.92-8.42-2.41-5.54 1.46-5.62 7.94-.14 11.34-.25 22.69a.53.47-89 01-.49.53l-7.4-.21a.58.5-89 01-.48-.58l-.24-36.37a.51.51-2.3 01.48-.52l5.8-.33a1.18 1.08 85.2 011.15 1.06l.46 4.17q.06.54.38.1zm277.28.01q4.76-5.69 11.43-5.99 8.33-.37 11.94 7.69.67 1.49 1.15 3.97.35 1.73.42 4.09.32 10.79.17 22.28a.67.67-89.6 01-.67.66h-7.3a.52.52-90 01-.52-.52q0-9.73.24-19.22.1-4.13-.99-7.26-.73-2.08-2.53-3.29-1.5-1.01-3.77-1.11-5.86-.24-7.94 4.45-1.01 2.26-1.01 8.03v18.36a.56.55-90 01-.55.56l-7.14-.05a.53.5 89.4 01-.5-.52l-.3-36.68a.5.48-1.2 01.49-.49l5.94-.16a.61.51-3.7 01.62.45l.51 4.65q.05.41.31.1zm171 15.29a.78.78 4.3 01-.77.66h-23.52a.83.82-4.7 00-.82.96q1.64 9.53 11.23 9.86 5.13.18 10.52-1.39a.5.48-13.7 01.62.36l.98 4.91a.59.56-14.6 01-.4.64q-9.06 2.83-17.53 1.22-5.83-1.11-9.29-5.44-2.98-3.73-3.79-9.42-1.12-7.92 2.95-15.14 3.11-5.51 9.42-7.47 7.53-2.35 13.24 1.25 4.48 2.83 6.33 8.19 1.69 4.92.83 10.81zm-22.44-11.9q-2.18 2.75-2.36 6a.49.48 1.7 00.49.51h16.12a.54.53-88.9 00.53-.52q.24-5.52-3.76-7.99-2.7-1.67-5.66-1.25-3.15.45-5.36 3.25zm-297.21 4.5q.33-5.41-3.65-7.16-2.65-1.17-6.74-.49-3.35.55-6.58 2.18a.45.44-21.6 01-.62-.26l-1.27-4.48a.62.59-21.4 01.33-.71q6.14-3.06 13.55-2.77 10.69.41 13 10.5.67 2.93.46 12.5-.16 7.24.66 14.97a.47.46 87.2 01-.46.52l-6.34-.04a.68.63 81.6 01-.62-.5l-.86-3.16q-.13-.49-.48-.09-3.32 3.91-8.36 4.55-5.25.67-9.06-1.99-3.67-2.57-4.55-7.21-.83-4.42 1.59-8.19 1.94-3.04 6.06-5.01 6.22-2.96 13.4-2.69a.52.5 2.9 00.54-.47zm-13.06 11.67q-.9 2.37.14 4.58 2.32 4.9 8.06 2.79 4.48-1.64 5.13-6.73.42-3.31.09-5.5a.72.71.6 00-.58-.59q-5.73-.96-10.13 2.14-2 1.41-2.71 3.31zm-217.076 14.12a19.8 18.5 94.1 01-17.037-21.073 19.8 18.5 94.1 0119.869-18.426 19.8 18.5 94.1 0117.037 21.072 19.8 18.5 94.1 01-19.869 18.426zm.957-6.124a13.62 9.79 91.3 0010.096-13.394 13.62 9.79 91.3 00-9.478-13.838 13.62 9.79 91.3 00-10.096 13.394 13.62 9.79 91.3 009.478 13.838zM585.47 76.96q4.43-5.45 10.77-6.57 6-1.06 11.74 1.69 8.62 4.13 9.7 15.18 1.15 11.76-7.01 18.15-3.85 3.02-8.53 3.77-5.02.81-9.6-1.07-5.61-2.3-8.52-7.47-2.81-4.99-2.58-11.7.25-7.32 4.03-11.98zm13.625 26.397a13.63 9.8 91.2 0010.083-13.422 13.63 9.8 91.2 00-9.513-13.832 13.63 9.8 91.2 00-10.083 13.422 13.63 9.8 91.2 009.513 13.832zM745.46 76.95q6.29-7.78 16.54-6.69 3.34.35 6.23 1.84 2.71 1.39 4.93 4.01 6.52 7.68 4.09 18.64-1.43 6.44-5.97 10.29-3.68 3.12-8.75 4.07-5.2.97-9.99-1-5.62-2.31-8.52-7.47-2.81-4.99-2.58-11.7.25-7.32 4.02-11.99zm13.62 26.406a13.63 9.8 91.3 0010.107-13.404 13.63 9.8 91.3 00-9.488-13.849 13.63 9.8 91.3 00-10.106 13.405 13.63 9.8 91.3 009.488 13.849z"/><path fill="#fff" d="M463.08 99.7l8.47-28.54a.68.65-81.7 01.63-.49h5.63a.66.66-7.4 01.64.49l7.36 27.66q.51 1.92 1 .01l7-27.59a.67.66 7 01.63-.49l6.62-.09a.63.61 7.9 01.61.79l-11.09 36.51a.71.65-81.1 01-.64.51l-7.01-.11a.71.65 82.3 01-.63-.52l-7.03-25.85q-.46-1.69-.93-.01l-7.45 26.04a.67.67 51.8 01-.64.48h-6.78a.81.81-8.1 01-.78-.58l-10.84-36.68a.4.37 81.1 01.34-.51l5.56.02q2.33.01 2.69 1.56l6.37 27.39q.12.51.27 0z"/><path d="M946.69 79.19q2.21-2.8 5.36-3.25 2.96-.42 5.66 1.25 4 2.47 3.76 7.99a.54.53-88.9 01-.53.52h-16.12a.49.48 1.7 01-.49-.51q.18-3.25 2.36-6z"/><ellipse transform="rotate(91.3 166.442 250.457)" rx="13.62" ry="9.79"/><ellipse transform="rotate(91.2 255.755 338.343)" rx="13.63" ry="9.8"/><ellipse transform="rotate(91.3 335.837 416.041)" rx="13.63" ry="9.8"/><path d="M684.66 77.76q4.15-2.47 8.36.14 2.86 1.78 3.9 5.37.79 2.75.78 5.65-.02 3.54-.34 5.66-.65 4.25-4.01 6.4-3.54 2.27-7.48 1.07-4.16-1.25-5.99-5.97-2.58-6.63-.07-12.53 1.65-3.89 4.85-5.79zm-45.53 14.29q4.4-3.1 10.13-2.14a.72.71.6 01.58.59q.33 2.19-.09 5.5-.65 5.09-5.13 6.73-5.74 2.11-8.06-2.79-1.04-2.21-.14-4.58.71-1.9 2.71-3.31z"/><path fill="#fff" d="M184.56 109.19q3.84.76 8.69-1.19 3.08-1.24 3.16-1.27 5.15-1.87 10.29-3.76 6.82-2.5 13.93-2.95 6.96-.45 14.01 1.27 16.79 4.09 28.15 18.47a.59.58-35.4 01-.15.86q-16.08 10.12-20.83 28.94-1.75 6.95-.08 16.65 4.12 23.81 26.08 34.09a.73.72 22.2 01.38.89q-7.75 22.86-23 41-3.49 4.15-9.71 8.31-6.29 4.21-13.48 4-6.75-.2-13.51-3.3-20.19-9.28-40.05.74-3.59 1.81-9.36 2.74-7.04 1.14-13.39-2.62-5.32-3.14-9.1-6.9-7.89-7.84-13.78-17.27-17.38-27.84-20.31-60.14-1.92-21.17 7.42-39.36 4.99-9.71 11.94-15.9Q132.47 103.04 147 101q6.76-.95 13.93.47 3.33.67 11.75 3.96 7.26 2.84 11.88 3.76zm462.62 47.24q7.5-7.99 18.33-10.14 17.46-3.47 34.31 3.61a.74.73-69.7 01.41.91l-4.1 12.57a.45.45-68.2 01-.62.27q-11.15-5.25-23.02-4.49-7.24.46-11.51 5.07-4.21 4.55-3.55 10.6.69 6.36 6.88 10.37 5.08 3.3 10.72 5.57 5.66 2.29 11.12 5 7.25 3.6 12.02 9.65 4.78 6.06 5.91 13.7 1.39 9.34-2.83 17.88-5.03 10.19-16.84 14.35-9.36 3.3-19.11 3.16-7.33-.11-13.55-1.46-6.62-1.44-12.88-4.85a.67.65 23 01-.32-.75l3.78-12.96a.52.51 23.3 01.75-.29q12.11 6.94 26.17 6.38 6.99-.28 12.01-4.16 4.62-3.58 5.62-9.32 1.48-8.51-5.69-15.04-3.28-2.97-10.76-5.6-7.06-2.48-13.44-6.23-7.58-4.45-11.37-9.25-8.02-10.17-4.37-24.23 1.44-5.54 5.93-10.32zm-273.58-9.5a.54.53 9 01.51-.36l20.15.19a.68.67-8.9 01.64.46L429 252.53a.32.31 81 01-.29.41l-17.4.01a.68.67 81.1 01-.64-.48l-9.25-29.98a1.04 1.02 81.1 00-.98-.73l-33.5.17a.68.68-81.3 00-.65.48L357 252.24a1.09 1.08-81.2 01-1.03.76h-16.46a.25.24-80.6 01-.23-.33l34.32-105.74zm9.74 15.74l-13.47 44.95a.9.89 8.1 00.87 1.15l26.96-.33a.24.24 80.7 00.22-.31l-14.12-45.46q-.23-.75-.46 0zm359.22 13.52l17.52.06a.67.67 89.8 01.67.67v11.28a.8.8 89.8 01-.8.8h-17.39a.56.56 90 00-.56.56q0 18.44.01 36.19 0 2.9.35 5.77.84 6.9 7.39 8.98 2.06.65 9.08-.48a.46.44-5.6 01.54.42l.33 11.37a1.05.95-11.1 01-.71.95q-3.08 1.07-6.58 1.4-3.35.32-6.69.31-15.74-.05-19.47-16.22-1.12-4.88-1.06-14.5.11-17.09 0-34.18a.52.51 90 00-.51-.52l-10.13-.04a.56.55.5 01-.55-.55v-11.41a.8.8 89.8 01.8-.8h9.93a.52.52 90 00.52-.52v-12.7A1.08 1.08 81.2 01726 162l15.38-4.78a.48.47 81.2 01.62.46l.06 18.02a.5.49 0 00.5.49z"/><path d="M383.34 162.67q.23-.75.46 0l14.12 45.46a.24.24 80.7 01-.22.31l-26.96.33a.9.89 8.1 01-.87-1.15l13.47-44.95z"/><path fill="#fff" d="M780.53 186.77q8.65-9.55 20.5-11.72 9.93-1.81 19.75 1.46 10.44 3.48 16.87 12.28 5.65 7.74 7.37 18.37 2.1 12.91-3.01 24.79-4.22 9.83-12.03 15.62-9.72 7.22-22.73 7.18-11.26-.03-20.11-5.82-8.3-5.43-12.74-15.03-5.95-12.87-2.9-28.4 2.2-11.18 9.03-18.73zm13.1 8.12q-3.62 4.7-4.94 11.05-2.31 11.02.8 21.31 1.82 6.05 6.45 10.31 5.33 4.89 12.09 4.71 4.04-.11 7.69-2.02 3.73-1.95 6.22-5.31 3.91-5.29 5.19-11.71 1.17-5.86.73-12.5-.58-8.76-5.42-15.67-5.53-7.89-14.96-7.54-4.22.16-7.66 2.03-3.6 1.96-6.19 5.34zm-334.36-6.77q.05.63.41.1 6.88-9.9 17.55-12.55 14.35-3.57 25.46 4.39 7.18 5.15 10.88 14.79 6.9 17.96 1.15 34.96-3.63 10.76-10.35 16.84-8.84 8.01-22.37 7.81-12.46-.18-20.19-9.57-.32-.39-.32.11l-.23 38.46a.8.78-89.6 01-.78.79h-15.67a.81.81 0 01-.81-.81v-83.7q0-4.73-.32-11.46-.28-5.73-.36-11.47a.49.49 89.4 01.49-.5l13.81-.06a.94.88 87.9 01.88.88l.77 10.99zm6.97 6.61q-4.2 5.36-4.74 11.77-.66 7.91.1 17.49.87 11.02 9.49 15.32 4.49 2.23 9.61 1.96 5.44-.28 9.63-3.32 4.98-3.6 7.82-11.35 4.21-11.46.25-23.21-2.21-6.54-5.66-9.95-4.31-4.26-10.98-5.02-9.71-1.1-15.52 6.31zm81.3-6.61q.05.71.46.13 10.15-14.26 27.5-13.43 12.44.59 20.56 9.87 7.84 8.95 9.19 22.56 1.53 15.39-4.25 27.83-3.83 8.24-9.83 12.92-6.65 5.2-15.66 6.32-8.88 1.11-16.95-2.62-5.36-2.49-8.33-7.09-.66-1.04-.67.19l-.12 38.89a.51.5 0 01-.51.5l-15.88.06a.56.55 90 01-.55-.56v-82.33q0-5.72-.3-12.21-.28-6.11-.49-12.22a.5.49 88.3 01.48-.52l13.67-.14a.93.92 88 01.92.87l.76 10.98zm7.66 5.82q-5.06 6.07-5.45 14.06-.19 3.91 0 11.04.19 7.12 1.55 10.87 3.97 11.01 15.94 11.24 5.88.11 10.48-2.82 5.01-3.19 7.52-8.53 2.58-5.48 3.06-13.33.43-6.97-1.86-13.82-2.06-6.15-6.5-10.09-4.19-3.71-9.6-4.16-4.39-.37-8.13.78-4.09 1.25-7.01 4.76zm320.58-3.21q2.84-5.84 4.28-7.67 7.67-9.72 20.13-8.07a.58.57 4 01.5.57l.05 14.68a.71.7 5.4 01-.85.69q-4.79-.94-9.36.39-4.35 1.27-7.58 4.85-5.05 5.61-5.2 13.08-.43 21.12-.24 43.24a.51.51 0 01-.51.51h-15.86a.65.64-90 01-.64-.65l-.31-75.42a.53.5-90 01.5-.53l13.37.01a.57.55 87.8 01.55.53l.93 13.76q.03.47.24.03zm50.05 28.34q.69 20.47 20.92 22.18 10.87.92 22.95-3.03a.49.45-15.1 01.62.32l2.27 10.8a.62.57-16.9 01-.4.68q-14.45 5.29-29.69 4.18-13.74-1-22.44-9.78-6.53-6.59-9.34-17.39-4.97-19.19 5.59-36.97 6.92-11.64 21.18-14.61 9.97-2.08 18.95 1.05 7.63 2.65 12.62 8.63 5.09 6.08 6.81 14.34 1.82 8.69.78 18.47a.63.62-86.9 01-.62.56l-49.71.06a.49.49 88.9 00-.49.51zm5.34-26.4q-4.58 5.74-5.45 13.32a.46.46 3.3 00.46.51l34.01-.06a.52.51-89.4 00.51-.51q.15-7.32-3.2-12.68-3.38-5.41-9.68-6.61-10.29-1.95-16.65 6.03z"/><path d="M931.17 192.67q6.36-7.98 16.65-6.03 6.3 1.2 9.68 6.61 3.35 5.36 3.2 12.68a.52.51-89.4 01-.51.51l-34.01.06a.46.46 3.3 01-.46-.51q.87-7.58 5.45-13.32zm-137.54 2.22q2.59-3.38 6.19-5.34 3.44-1.87 7.66-2.03 9.43-.35 14.96 7.54 4.84 6.91 5.42 15.67.44 6.64-.73 12.5-1.28 6.42-5.19 11.71-2.49 3.36-6.22 5.31-3.65 1.91-7.69 2.02-6.76.18-12.09-4.71-4.63-4.26-6.45-10.31-3.11-10.29-.8-21.31 1.32-6.35 4.94-11.05zm-238.43-.95q2.92-3.51 7.01-4.76 3.74-1.15 8.13-.78 5.41.45 9.6 4.16 4.44 3.94 6.5 10.09 2.29 6.85 1.86 13.82-.48 7.85-3.06 13.33-2.51 5.34-7.52 8.53-4.6 2.93-10.48 2.82-11.97-.23-15.94-11.24-1.36-3.75-1.55-10.87-.19-7.13 0-11.04.39-7.99 5.45-14.06zm-88.96.79q5.81-7.41 15.52-6.31 6.67.76 10.98 5.02 3.45 3.41 5.66 9.95 3.96 11.75-.25 23.21-2.84 7.75-7.82 11.35-4.19 3.04-9.63 3.32-5.12.27-9.61-1.96-8.62-4.3-9.49-15.32-.76-9.58-.1-17.49.54-6.41 4.74-11.77z"/></svg>