<svg xmlns="http://www.w3.org/2000/svg" version="1.2" baseProfile="tiny" viewBox="0 0 1080 322"><g stroke-width="2" fill="none"><path stroke="gray" vector-effect="non-scaling-stroke" d="M330.63 73.31q-1.43 10.85-11.69 13.38-8.58 2.11-15.08-2.27-5.77-3.89-7.9-10.65-2.26-7.16 1.6-14.21 4.85-8.83 13.94-10.06 8.18-1.11 14.87 4.91a.68.51 42.8 00.81.08l2.9-2.89a1.14 1.01 43.1 00-.14-1.56q-4.76-4.26-10.71-5.43-10.5-2.08-18.56 3.01-5.95 3.75-8.93 10.02-2.99 6.31-2.17 13.85 1.14 10.42 8.75 16.29 3.89 3 8.95 4.35 5.21 1.39 10.17.56 20.65-3.48 19.16-25.01a.55.54-1.1 00-.54-.51l-21.68-.16a.64.63 90 00-.63.64v4.32a.58.55.5 00.57.55l15.88.26a.47.45-85.4 01.43.53m210.64-4.86a24.43 24.43 0 00-24.43-24.43 24.43 24.43 0 00-24.43 24.43 24.43 24.43 0 0024.43 24.43 24.43 24.43 0 0024.43-24.43M371.78 91.99q.54-2.68.02-5.19a.64.61-5.1 00-.61-.49l-20.25-.24a.5.5 0 01-.5-.5l.06-13.56a.52.51 89.4 01.5-.52l18.25-.24a.62.49-.6 00.61-.49l-.01-4.1a1.07.94 0 00-1.06-.93l-17.85-.15a.53.52 0 01-.53-.52V51.18a.54.51-.6 01.53-.51l20.24-.23a.7.63 5.9 00.65-.48q.62-2.29-.15-4.5a.72.68-9.1 00-.67-.46H345a.5.5 0 00-.5.5v46.19a.56.55 90 00.55.56l26.49-.06a.25.24-84.2 00.24-.2m24.47-40.62a.87.86-.3 01.87-.87h11.84a.52.5-.5 00.52-.51l-.02-4.43a.53.5 0 00-.53-.5L378.12 45a.88.87 90 00-.87.88v4.11a.52.51 0 00.52.51l12.03.05a.73.71-89.6 01.7.73l.06 40.4a.53.51-89.4 00.5.53l3.6.06q1.87.03 1.86-1.94l-.27-38.96m40.03-6.11a.26.26 0 00-.26-.26h-5.26a.26.26 0 00-.26.26v46.72a.26.26 0 00.26.26h5.26a.26.26 0 00.26-.26V45.26m26.27 5.51l11.6-.24a.95.84-1.3 00.93-.86l-.1-4.11a.54.51-.5 00-.54-.5L443.89 45a1.11 1.08 0 00-1.11 1.08v3.86a.54.51.6 00.53.51l12.02.05a.67.67.4 01.67.67l.06 40.28a.62.49 90 00.49.62l4.46-.02a1.14.99 90 00.99-1.14l.06-39.6a.54.5 89.5 01.49-.54m92 3.71q.01-.92.5-.13l23.12 37.28a1.05.83 71.3 00.77.5l4.92.05a.95.88-89.7 00.89-.95l-.06-45.41a.62.5-89.5 00-.49-.62l-4.76-.1a.6.51-88.4 00-.52.58q-.57 17.88.25 35.42.07 1.51-.72.23l-22.17-35.77a1.19 1.19 74 00-1.01-.56H549a.5.5 0 00-.5.5v46.11a.62.61 90 00.61.62l4.58-.02a.54.5-89.4 00.5-.53l.36-37.2"/><path stroke="#225660" vector-effect="non-scaling-stroke" d="M95.31 106.78q-4.36.39-6 5.28-1.25 3.74-.77 8.69"/><path stroke="#265f62" vector-effect="non-scaling-stroke" d="M88.54 120.75l.1 16.97"/><path stroke="#286564" vector-effect="non-scaling-stroke" d="M88.64 137.72l-.1 10.03"/><path stroke="#2b6b65" vector-effect="non-scaling-stroke" d="M88.54 147.75V161"/><path stroke="#2d7167" vector-effect="non-scaling-stroke" d="M88.54 161v8.75"/><path stroke="#2f7768" vector-effect="non-scaling-stroke" d="M88.54 169.75V183"/><path stroke="#327c69" vector-effect="non-scaling-stroke" d="M88.54 183l.01 9.98"/><path stroke="#33806a" vector-effect="non-scaling-stroke" d="M88.55 192.98q-.09 32.54-.05 65.02.01 5.96 5.75 8.46"/><path stroke="#541c54" vector-effect="non-scaling-stroke" d="M94.25 266.46q4.46 1.18 9.31-1.4 13.31-7.06 26.48-14.27"/><path stroke="#5c1e48" vector-effect="non-scaling-stroke" d="M130.04 250.79l20.5-11.29"/><path stroke="#611e40" vector-effect="non-scaling-stroke" d="M150.54 239.5q6.18-2.86 10.6-5.97"/><path stroke="#651f3a" vector-effect="non-scaling-stroke" d="M161.14 233.53l7.4-3.78"/><path stroke="#6a2033" vector-effect="non-scaling-stroke" d="M168.54 229.75L199.29 213"/><path stroke="#806233" vector-effect="non-scaling-stroke" d="M199.29 213q26.57-14.02 35.77-19.69 4.84-2.98 3.74-7.67-.65-2.77-3.37-4.85-2.05-1.56-5.18-3.29-15.41-8.51-30.96-16.75"/><path stroke="#657d52" vector-effect="non-scaling-stroke" d="M199.29 160.75l-22.18-11.95"/><path stroke="#5d7954" vector-effect="non-scaling-stroke" d="M177.11 148.8l-15.57-8.55"/><path stroke="#557655" vector-effect="non-scaling-stroke" d="M161.54 140.25l-7.04-3.96"/><path stroke="#4f7356" vector-effect="non-scaling-stroke" d="M154.5 136.29l-17.25-9.33"/><path stroke="#436e58" vector-effect="non-scaling-stroke" d="M137.25 126.96q-16.06-8.98-32.29-17.66-.07-.04-2.19-1.38-3.09-1.97-7.46-1.14"/><path stroke="#91e0ae" vector-effect="non-scaling-stroke" d="M137.25 126.96q-.71.47-.27 1.11.22.32.8.52 3.67 1.25 6.18 4.2.69.81.17 1.4a1.41.77-36.2 00-.38.81q.06 8.6.18 17.19.03 1.93-1.43 3.1"/><path stroke="#6bd3bc" vector-effect="non-scaling-stroke" d="M142.5 155.29l-9-8.83"/><path stroke="#68ccba" vector-effect="non-scaling-stroke" d="M133.5 146.46l-16.21-16.71"/><path stroke="#64c3b8" vector-effect="non-scaling-stroke" d="M117.29 129.75q-11.35-11.05-21.98-22.97"/><path stroke="#53d0c9" vector-effect="non-scaling-stroke" d="M144.04 157l-52.81.25a1.47 1.46-.4 01-1.48-1.45q-.04-3.88-1.21-8.05"/><path stroke="#47b4c2" vector-effect="non-scaling-stroke" d="M117.29 129.75l-.09.35a.54.45 4.6 01-.5.35q-15.45.45-20.45.3-3.22-.1-4.95.31a.64.58-18.3 01-.7-.31q-.31-.67-.53-1.37-.24-.75-.13-1.9.32-3.54-1.4-6.73"/><path stroke="#4ec4c6" vector-effect="non-scaling-stroke" d="M133.5 146.46l-42.19.22a.67.63-6.7 01-.64-.48l-2.03-8.48"/><path stroke="#a4e8aa" vector-effect="non-scaling-stroke" d="M154.5 136.29q-.27.96.36 1.63a.3.25-36.2 01-.1.42l-.44.27a1.17.61 83.3 00-.34.89l-.24 24a.63.51-8.5 01-.48.52q-.75.2-.55 1.48"/><path stroke="#79debb" vector-effect="non-scaling-stroke" d="M152.71 165.5l-8.67-8.5"/><path stroke="#77d8b9" vector-effect="non-scaling-stroke" d="M144.04 157l-1.54-1.71"/><path stroke="#58dccc" vector-effect="non-scaling-stroke" d="M154 167.21q-5.72 1.03-11.56.94-25.81-.38-51.62.03a.53.53 87.1 01-.54-.49q-.25-3.49-1.74-6.69"/><path stroke="#b2efa8" vector-effect="non-scaling-stroke" d="M161.54 140.25q-.63 1.07.65 1.56 3.11 1.21 3.72 4.13.07.32.13 5.13.16 12.47-.04 25.06a.33.33 11.2 01-.45.3q-1.03-.39-1.84.32"/><path stroke="#82e7bb" vector-effect="non-scaling-stroke" d="M163.71 176.75l-9.71-9.54"/><path stroke="#80e1ba" vector-effect="non-scaling-stroke" d="M154 167.21l-1.29-1.71"/><path stroke="#5ce8cf" vector-effect="non-scaling-stroke" d="M165.04 178.25q-4.25 1.44-9.54 1.25-19.48-.7-44.5-.37-8.38.11-16.75-.11-2.01-.06-2.66.32a1.21 1.21-15.4 01-1.82-1.03q-.06-5.17-1.23-8.56"/><path stroke="#c2f6a6" vector-effect="non-scaling-stroke" d="M177.11 148.8q1.65 2.98 6.14 4.7 2.41.92 2.13 3.27-.34 2.93-.34 3 .14 6.35-.43 12.67a.64.51 13.2 00.45.57q.71.22.48 1.24"/><path stroke="#dddb87" vector-effect="non-scaling-stroke" d="M185.54 174.25l-12.33 12.5"/><path stroke="#c79986" vector-effect="non-scaling-stroke" d="M173.21 186.75h-.17"/><path stroke="#8cf0bc" vector-effect="non-scaling-stroke" d="M173.04 186.75l-8-8.5"/><path stroke="#8aeaba" vector-effect="non-scaling-stroke" d="M165.04 178.25l-1.33-1.5"/><path stroke="#99969b" vector-effect="non-scaling-stroke" d="M173.04 186.75q-.51.78-1.27 1.18"/><path stroke="#61f2d1" vector-effect="non-scaling-stroke" d="M171.77 187.93q-5.46 1.54-11.07 1.11-6.89-.52-7.95-.52-28.63.16-56.94.04-1.55 0-3.04.43-2.25.66-2.59-1.27-.45-2.49-1.64-4.72"/><path stroke="#ea8266" vector-effect="non-scaling-stroke" d="M199.29 213l-26.08-26.25"/><path stroke="#e5df85" vector-effect="non-scaling-stroke" d="M199.29 160.75l-13.75 13.5"/><path stroke="#cf3f6d" vector-effect="non-scaling-stroke" d="M168.54 229.75q-.09-.32-.31-.53a.38.32 50.8 01.01-.54q1.59-.97 2.95-2.25.3-.29.32-.58.04-.44-.3-.67a1.04.65 23.3 01-.48-.69q-.59-14.14-.23-25.24.11-3.33-.23-5.69a.62.56-2.7 00-.58-.48q-1.76-.05-.69-2.1"/><path stroke="#9c9b9c" vector-effect="non-scaling-stroke" d="M171.77 187.93l-2.77 3.05"/><path stroke="#979ba3" vector-effect="non-scaling-stroke" d="M169 190.98L158.79 201"/><path stroke="#65fbd3" vector-effect="non-scaling-stroke" d="M158.79 201q.49-2.04-1.48-2.06-9.5-.11-12.31.06-1.8.11-2.77-.1a1.6 1.41 37 00-.92.07q-1.02.45-2.31.28-5.85-.75-12.14-.57-8.38.24-12.11.09-10.06-.42-13.5-.02-2.78.32-7.81-.19-1.63-.16-2.61 1.21a.32.3-42.9 01-.52 0q-.19-.34-.34-.69-.21-.48-.12-1.2.34-2.74-1.3-4.9"/><path stroke="#c63d7a" vector-effect="non-scaling-stroke" d="M161.14 233.53q-1.34-15.16-.55-30.34.08-1.56-.87-.7-1.37 1.24-1.01-1.24"/><path stroke="#989fa4" vector-effect="non-scaling-stroke" d="M158.71 201.25l.08-.25"/><path stroke="#949eaa" vector-effect="non-scaling-stroke" d="M158.71 201.25L147.21 213"/><path stroke="#8f9db2" vector-effect="non-scaling-stroke" d="M147.21 213l-18 18"/><path stroke="#879cbe" vector-effect="non-scaling-stroke" d="M129.21 231l-34.96 35.46"/><path stroke="#bd3c87" vector-effect="non-scaling-stroke" d="M150.54 239.5q-1-.36-.75-1.1.27-.78.28-.85.47-3.36.37-6.74-.17-5.52-.17-5.61.04-8.99-.08-11.39-.06-1.14-.88-1.26a1.07.52-56.4 00-.75.44q-.5.6-1.35.01"/><path stroke="#b03a9c" vector-effect="non-scaling-stroke" d="M130.04 250.79q-.51-3.32-.29-5.04.82-6.5-1.04-12.71a.79.63-31.3 01.27-.75q.6-.53.23-1.29"/><path stroke="gray" vector-effect="non-scaling-stroke" d="M298.2 146.2q-11.86 13.45-13.45 30.55-1.98 21.21 11.44 38.31 13.16 16.79 35.06 20.69 10.89 1.94 21.9-.57 10.04-2.28 18.21-7.97 17.9-12.47 19.93-35.71.26-3.02.09-7-.15-3.38-.41-6.97a.85.84-2.2 00-.85-.78l-48.77-.26a.86.85-89.3 00-.86.85l-.06 13.9a.51.51 0 00.51.51h34.48a.45.44-86.1 01.44.51q-2.18 14.95-12.73 22.47-7.52 5.36-18.68 6.43-16.16 1.56-28.78-8.48-6.56-5.22-10.27-12.18-3.98-7.46-4.4-15.75-1.07-20.97 13.43-33.21 7.78-6.58 17.72-8.8 17.06-3.81 32.12 7.37.17.13 1.62 1.61 1.37 1.4 2.67-.19 1.02-1.24 1.12-1.34 3.89-3.88 7.88-7.87a.5.49-47 00-.02-.71q-15.67-13.97-35.31-14.77-10.12-.42-19.66 2.87-14.11 4.86-24.37 16.49m351.45-15.256a.43.43 0 00-.43-.431l-14.7-.026a.43.43 0 00-.43.43l-.18 103.14a.43.43 0 00.43.43l14.7.026a.43.43 0 00.43-.43l.18-103.14m112.04 1.477q-.1 25.96-.17 52.08-.01 5.18.18 20.01.2 14.55-.22 29.54a.92.92-89.1 00.92.95h14.29a.56.56 90 00.56-.56v-38.72a.74.73.4 01.75-.73q8.17.11 15.89-.03 10.27-.19 15.09-1.63 7.82-2.33 13.33-8.02 9.47-9.76 8.39-24.57-1.01-13.92-11.39-21.8-8.85-6.73-18.56-6.94-18.87-.41-38.4-.24a.66.66 90 00-.66.66m98.31-.24a.42.42 0 00-.42-.42h-14.66a.42.42 0 00-.42.42v102.4a.42.42 0 00.42.42h14.66a.42.42 0 00.42-.42v-102.4m62.27 93.64q.6 3.98.06 8.38a.71.71-86.4 00.7.8h14.19a.77.77-89.6 00.77-.76q.15-19.22-.11-37.6-.15-10.9-1.72-15.61-2.7-8.12-9.47-13.22-7.09-5.34-16.19-6.43-8.99-1.08-16.89 1.16-11.17 3.17-17.89 13.92a.95.94 28.8 00.4 1.35l11.95 5.69a.91.89 29.6 001.15-.3q3.71-5.57 10.11-7.06 10.77-2.5 18.73 4.8 3.59 3.28 3.86 9.26a.32.32 9.6 01-.44.31q-16.62-6.12-32.19-.13-7.8 3-11.98 8.41-6.24 8.09-3.82 18.53 1.55 6.66 5.95 11.28 4.58 4.8 11.29 6.97 19.4 6.3 30.74-9.93.63-.9.8.18m51.21 6.81l-15.92 33.59a.54.54 12.9 00.49.78h16.33a.58.58-78.4 00.53-.35l43.83-100.62a.37.35-77.4 00-.3-.51l-16.61-.5a1.47 1.38-77.7 00-1.35.93l-18.17 45.61q-.3.76-.62.01l-19.74-45.73a1.3 1.27 77.2 00-1.2-.77l-16.15.43a.34.34-12.5 00-.31.48l29.2 65.76a1.07 1.06 46 01-.01.89m-572.53-45.46q-4.71 10.44-1.95 22.33 4.36 18.76 23.25 25.25 9.43 3.24 19.14 1.03 9.2-2.09 16.38-8.51 10.23-9.16 11.17-23.05.7-10.39-3.84-19.35-5.19-10.28-15.65-15.31-8.49-4.08-17.9-3.62-9.96.49-17.97 6.06-8.44 5.87-12.63 15.17m145.786 15.083a35.55 35.46 1.6 00-34.546-36.44 35.55 35.46 1.6 00-36.526 34.454 35.55 35.46 1.6 0034.546 36.44 35.55 35.46 1.6 0036.526-34.454m130.284 9.367l45.92-19.2a.55.55-20.9 00.31-.69q-2.75-8.08-7.73-14.22-5.45-6.73-12.55-9.55-8.14-3.23-17.46-1.39-8.17 1.62-14.31 6.54-5.64 4.53-9.19 12.13-6.92 14.81-.64 30.06 2.88 7.01 7.91 11.75 5.44 5.13 12.44 7.52 9.62 3.27 19.72.99 12.65-2.85 21.5-14.26a.47.45 35.2 00-.13-.67l-11.34-7.26a.76.72 33 00-1.01.19q-5.65 8.38-15.97 8.77-12.27.47-17.7-10.07a.47.46 65.2 01.23-.64m-70.6 16.96q.85-1.12.83.28-.05 5.12-.7 10.06-1.12 8.48-7.22 12.32-5.45 3.44-12.75 2.73-10.2-.97-15.63-11.56a.66.65-24.6 00-.83-.3l-12.02 4.88a.89.88-24 00-.47 1.2q6.04 12.76 18.44 17.66 4.79 1.89 10.2 2.18 5.33.29 10.52-.77 7.06-1.43 12.18-5.1 5.76-4.12 8.72-10.47 3.97-8.52 4.06-15.69.43-32.62.24-66.94a.76.75 90 00-.75-.76h-13.42a.55.5-88.2 00-.5.52l-.25 4.43q-.03.53-.43.15-6.93-6.63-15.64-7.4-13.03-1.16-23.52 7.74-10.09 8.57-12.23 20.01-3.61 19.32 9.37 32.38 5.4 5.43 11.61 7.97 6.68 2.74 14.27 2.41 10.24-.46 15.92-7.93M516.709 87.369a18.93 18.11 90.7 0018.34-18.708 18.93 18.11 90.7 00-17.878-19.15 18.93 18.11 90.7 00-18.34 18.708 18.93 18.11 90.7 0017.878 19.15"/><path stroke="gray" vector-effect="non-scaling-stroke" d="M811.31 173.31q4.07-5.47 3.26-11.56-.77-5.76-5-10-5-4.99-13.07-4.88-9 .13-18.58.13a.67.67 90 00-.67.67l.06 31.52a.51.5 0 00.51.5q16.35.17 20.68.06 8.18-.2 12.81-6.44m79.63 33.88q-3.75 6.14.04 10.31 2.69 2.97 7.91 3.91 7.1 1.29 13.17-2.6 7.2-4.61 10.14-12.67a1.29 1.27 29.3 00-.42-1.45q-2.21-1.7-5.07-2.55-8.91-2.65-17.88-.25-5.56 1.48-7.89 5.3M432.707 222.5a21.39 19.96 92.5 0020.874-20.5 21.39 19.96 92.5 00-19.008-22.24 21.39 19.96 92.5 00-20.874 20.5 21.39 19.96 92.5 0019.008 22.24m77.739-.004a21.39 19.95 92.1 0020.72-20.645 21.39 19.95 92.1 00-19.152-22.107 21.39 19.95 92.1 00-20.72 20.645 21.39 19.95 92.1 0019.152 22.107M678.19 186.94q-4.53 5.63-4.39 12.5a.35.34-12.1 00.48.31l30.76-12.56a.43.42 62.9 00.2-.62q-5.09-8.08-14.97-6.67-7.26 1.04-12.08 7.04m-89.2 35.708a21.47 19.18 90.8 0019.478-21.2 21.47 19.18 90.8 00-18.878-21.736 21.47 19.18 90.8 00-19.478 21.2 21.47 19.18 90.8 0018.878 21.736"/></g><path d="M1080 57.06l-.04 208.49q-1.05 24.96-18.65 40.76-13.87 12.47-32.57 14.04-4.8.4-13.99.4-478.88 0-957.75.02-19.31 0-33.44-10.33Q1.59 294.37 0 265.69V56.19q1.06-21.06 14.06-35.88Q27.78 4.69 48.03 1.87q4.43-.62 19.96-.62h953.26q11.23 0 20.76 3.12 9.25 3.03 17.34 9.7 19.34 15.95 20.65 42.99zM330.63 73.31q-1.43 10.85-11.69 13.38-8.58 2.11-15.08-2.27-5.77-3.89-7.9-10.65-2.26-7.16 1.6-14.21 4.85-8.83 13.94-10.06 8.18-1.11 14.87 4.91a.68.51 42.8 00.81.08l2.9-2.89a1.14 1.01 43.1 00-.14-1.56q-4.76-4.26-10.71-5.43-10.5-2.08-18.56 3.01-5.95 3.75-8.93 10.02-2.99 6.31-2.17 13.85 1.14 10.42 8.75 16.29 3.89 3 8.95 4.35 5.21 1.39 10.17.56 20.65-3.48 19.16-25.01a.55.54-1.1 00-.54-.51l-21.68-.16a.64.63 90 00-.63.64v4.32a.58.55.5 00.57.55l15.88.26a.47.45-85.4 01.43.53zm210.64-4.86a24.43 24.43 0 00-24.43-24.43 24.43 24.43 0 00-24.43 24.43 24.43 24.43 0 0024.43 24.43 24.43 24.43 0 0024.43-24.43zM371.78 91.99q.54-2.68.02-5.19a.64.61-5.1 00-.61-.49l-20.25-.24a.5.5 0 01-.5-.5l.06-13.56a.52.51 89.4 01.5-.52l18.25-.24a.62.49-.6 00.61-.49l-.01-4.1a1.07.94 0 00-1.06-.93l-17.85-.15a.53.52 0 01-.53-.52V51.18a.54.51-.6 01.53-.51l20.24-.23a.7.63 5.9 00.65-.48q.62-2.29-.15-4.5a.72.68-9.1 00-.67-.46H345a.5.5 0 00-.5.5v46.19a.56.55 90 00.55.56l26.49-.06a.25.24-84.2 00.24-.2zm24.47-40.62a.87.86-.3 01.87-.87h11.84a.52.5-.5 00.52-.51l-.02-4.43a.53.5 0 00-.53-.5L378.12 45a.88.87 90 00-.87.88v4.11a.52.51 0 00.52.51l12.03.05a.73.71-89.6 01.7.73l.06 40.4a.53.51-89.4 00.5.53l3.6.06q1.87.03 1.86-1.94l-.27-38.96zm40.03-6.11a.26.26 0 00-.26-.26h-5.26a.26.26 0 00-.26.26v46.72a.26.26 0 00.26.26h5.26a.26.26 0 00.26-.26V45.26zm26.27 5.51l11.6-.24a.95.84-1.3 00.93-.86l-.1-4.11a.54.51-.5 00-.54-.5L443.89 45a1.11 1.08 0 00-1.11 1.08v3.86a.54.51.6 00.53.51l12.02.05a.67.67.4 01.67.67l.06 40.28a.62.49 90 00.49.62l4.46-.02a1.14.99 90 00.99-1.14l.06-39.6a.54.5 89.5 01.49-.54zm92 3.71q.01-.92.5-.13l23.12 37.28a1.05.83 71.3 00.77.5l4.92.05a.95.88-89.7 00.89-.95l-.06-45.41a.62.5-89.5 00-.49-.62l-4.76-.1a.6.51-88.4 00-.52.58q-.57 17.88.25 35.42.07 1.51-.72.23l-22.17-35.77a1.19 1.19 74 00-1.01-.56H549a.5.5 0 00-.5.5v46.11a.62.61 90 00.61.62l4.58-.02a.54.5-89.4 00.5-.53l.36-37.2zm-459.24 52.3q-4.36.39-6 5.28-1.25 3.74-.77 8.69l.1 16.97-.1 10.03V183l.01 9.98q-.09 32.54-.05 65.02.01 5.96 5.75 8.46 4.46 1.18 9.31-1.4 13.31-7.06 26.48-14.27l20.5-11.29q6.18-2.86 10.6-5.97l7.4-3.78L199.29 213q26.57-14.02 35.77-19.69 4.84-2.98 3.74-7.67-.65-2.77-3.37-4.85-2.05-1.56-5.18-3.29-15.41-8.51-30.96-16.75l-22.18-11.95-15.57-8.55-7.04-3.96-17.25-9.33q-16.06-8.98-32.29-17.66-.07-.04-2.19-1.38-3.09-1.97-7.46-1.14zM298.2 146.2q-11.86 13.45-13.45 30.55-1.98 21.21 11.44 38.31 13.16 16.79 35.06 20.69 10.89 1.94 21.9-.57 10.04-2.28 18.21-7.97 17.9-12.47 19.93-35.71.26-3.02.09-7-.15-3.38-.41-6.97a.85.84-2.2 00-.85-.78l-48.77-.26a.86.85-89.3 00-.86.85l-.06 13.9a.51.51 0 00.51.51h34.48a.45.44-86.1 01.44.51q-2.18 14.95-12.73 22.47-7.52 5.36-18.68 6.43-16.16 1.56-28.78-8.48-6.56-5.22-10.27-12.18-3.98-7.46-4.4-15.75-1.07-20.97 13.43-33.21 7.78-6.58 17.72-8.8 17.06-3.81 32.12 7.37.17.13 1.62 1.61 1.37 1.4 2.67-.19 1.02-1.24 1.12-1.34 3.89-3.88 7.88-7.87a.5.49-47 00-.02-.71q-15.67-13.97-35.31-14.77-10.12-.42-19.66 2.87-14.11 4.86-24.37 16.49zm351.45-15.256a.43.43 0 00-.43-.431l-14.7-.026a.43.43 0 00-.43.43l-.18 103.14a.43.43 0 00.43.43l14.7.026a.43.43 0 00.43-.43l.18-103.14zm112.04 1.476q-.1 25.96-.17 52.08-.01 5.18.18 20.01.2 14.55-.22 29.54a.92.92-89.1 00.92.95h14.29a.56.56 90 00.56-.56v-38.72a.74.73.4 01.75-.73q8.17.11 15.89-.03 10.27-.19 15.09-1.63 7.82-2.33 13.33-8.02 9.47-9.76 8.39-24.57-1.01-13.92-11.39-21.8-8.85-6.73-18.56-6.94-18.87-.41-38.4-.24a.66.66 90 00-.66.66zm98.31-.24a.42.42 0 00-.42-.42h-14.66a.42.42 0 00-.42.42v102.4a.42.42 0 00.42.42h14.66a.42.42 0 00.42-.42v-102.4zm62.27 93.64q.6 3.98.06 8.38a.71.71-86.4 00.7.8h14.19a.77.77-89.6 00.77-.76q.15-19.22-.11-37.6-.15-10.9-1.72-15.61-2.7-8.12-9.47-13.22-7.09-5.34-16.19-6.43-8.99-1.08-16.89 1.16-11.17 3.17-17.89 13.92a.95.94 28.8 00.4 1.35l11.95 5.69a.91.89 29.6 001.15-.3q3.71-5.57 10.11-7.06 10.77-2.5 18.73 4.8 3.59 3.28 3.86 9.26a.32.32 9.6 01-.44.31q-16.62-6.12-32.19-.13-7.8 3-11.98 8.41-6.24 8.09-3.82 18.53 1.55 6.66 5.95 11.28 4.58 4.8 11.29 6.97 19.4 6.3 30.74-9.93.63-.9.8.18zm51.21 6.81l-15.92 33.59a.54.54 12.9 00.49.78h16.33a.58.58-78.4 00.53-.35l43.83-100.62a.37.35-77.4 00-.3-.51l-16.61-.5a1.47 1.38-77.7 00-1.35.93l-18.17 45.61q-.3.76-.62.01l-19.74-45.73a1.3 1.27 77.2 00-1.2-.77l-16.15.43a.34.34-12.5 00-.31.48l29.2 65.76a1.07 1.06 46 01-.01.89zm-572.53-45.46q-4.71 10.44-1.95 22.33 4.36 18.76 23.25 25.25 9.43 3.24 19.14 1.03 9.2-2.09 16.38-8.51 10.23-9.16 11.17-23.05.7-10.39-3.84-19.35-5.19-10.28-15.65-15.31-8.49-4.08-17.9-3.62-9.96.49-17.97 6.06-8.44 5.87-12.63 15.17zm145.786 15.083a35.55 35.46 1.6 00-34.546-36.44 35.55 35.46 1.6 00-36.526 34.454 35.55 35.46 1.6 0034.546 36.44 35.55 35.46 1.6 0036.526-34.454zm130.284 9.367l45.92-19.2a.55.55-20.9 00.31-.69q-2.75-8.08-7.73-14.22-5.45-6.73-12.55-9.55-8.14-3.23-17.46-1.39-8.17 1.62-14.31 6.54-5.64 4.53-9.19 12.13-6.92 14.81-.64 30.06 2.88 7.01 7.91 11.75 5.44 5.13 12.44 7.52 9.62 3.27 19.72.99 12.65-2.85 21.5-14.26a.47.45 35.2 00-.13-.67l-11.34-7.26a.76.72 33 00-1.01.19q-5.65 8.38-15.97 8.77-12.27.47-17.7-10.07a.47.46 65.2 01.23-.64zm-70.6 16.96q.85-1.12.83.28-.05 5.12-.7 10.06-1.12 8.48-7.22 12.32-5.45 3.44-12.75 2.73-10.2-.97-15.63-11.56a.66.65-24.6 00-.83-.3l-12.02 4.88a.89.88-24 00-.47 1.2q6.04 12.76 18.44 17.66 4.79 1.89 10.2 2.18 5.33.29 10.52-.77 7.06-1.43 12.18-5.1 5.76-4.12 8.72-10.47 3.97-8.52 4.06-15.69.43-32.62.24-66.94a.76.75 90 00-.75-.76h-13.42a.55.5-88.2 00-.5.52l-.25 4.43q-.03.53-.43.15-6.93-6.63-15.64-7.4-13.03-1.16-23.52 7.74-10.09 8.57-12.23 20.01-3.61 19.32 9.37 32.38 5.4 5.43 11.61 7.97 6.68 2.74 14.27 2.41 10.24-.46 15.92-7.93z"/><path fill="#fff" d="M330.2 72.78l-15.88-.26a.58.55.5 01-.57-.55v-4.32a.64.63 90 01.63-.64l21.68.16a.55.54-1.1 01.54.51q1.49 21.53-19.16 25.01-4.96.83-10.17-.56-5.06-1.35-8.95-4.35-7.61-5.87-8.75-16.29-.82-7.54 2.17-13.85 2.98-6.27 8.93-10.02 8.06-5.09 18.56-3.01 5.95 1.17 10.71 5.43a1.14 1.01 43.1 01.14 1.56l-2.9 2.89a.68.51 42.8 01-.81-.08q-6.69-6.02-14.87-4.91-9.09 1.23-13.94 10.06-3.86 7.05-1.6 14.21 2.13 6.76 7.9 10.65 6.5 4.38 15.08 2.27 10.26-2.53 11.69-13.38a.47.45-85.4 00-.43-.53zm211.07-4.33a24.43 24.43 0 01-24.43 24.43 24.43 24.43 0 01-24.43-24.43 24.43 24.43 0 0124.43-24.43 24.43 24.43 0 0124.43 24.43zm-24.561 18.919a18.93 18.11 90.7 0018.34-18.708 18.93 18.11 90.7 00-17.878-19.15 18.93 18.11 90.7 00-18.34 18.708 18.93 18.11 90.7 0017.878 19.15zM371.78 91.99a.25.24-84.2 01-.24.2l-26.49.06a.56.55 90 01-.55-.56V45.5a.5.5 0 01.5-.5h26.01a.72.68-9.1 01.67.46q.77 2.21.15 4.5a.7.63 5.9 01-.65.48l-20.24.23a.54.51-.6 00-.53.51v13.88a.53.52 0 00.53.52l17.85.15a1.07.94 0 011.06.93l.01 4.1a.62.49-.6 01-.61.49l-18.25.24a.52.51 89.4 00-.5.52l-.06 13.56a.5.5 0 00.5.5l20.25.24a.64.61-5.1 01.61.49q.52 2.51-.02 5.19zm24.47-40.62l.27 38.96q.01 1.97-1.86 1.94l-3.6-.06a.53.51-89.4 01-.5-.53l-.06-40.4a.73.71-89.6 00-.7-.73l-12.03-.05a.52.51 0 01-.52-.51v-4.11a.88.87 90 01.87-.88l30.81.06a.53.5 0 01.53.5l.02 4.43a.52.5-.5 01-.52.51h-11.84a.87.86-.3 00-.87.87z"/><rect fill="#fff" x="430.5" y="45" width="5.78" height="47.24" rx=".26"/><path fill="#fff" d="M462.06 51.31l-.06 39.6a1.14.99 90 01-.99 1.14l-4.46.02a.62.49 90 01-.49-.62L456 51.17a.67.67-.2 00-.67-.67l-12.02-.05a.54.51.6 01-.53-.51v-3.86a1.11 1.08 0 011.11-1.08l30.55.06a.54.51-.5 01.54.5l.1 4.11a.95.84-1.3 01-.93.86l-11.6.24a.54.5 89.5 00-.49.54zm92.49 3.17l-.36 37.2a.54.5-89.4 01-.5.53l-4.58.02a.62.61-90 01-.61-.62V45.5a.5.5 0 01.5-.5h6.27a1.19 1.19 74 011.01.56l22.17 35.77q.79 1.28.72-.23-.82-17.54-.25-35.42a.6.51-88.4 01.52-.58l4.76.1a.62.5-89.5 01.49.62l.06 45.41a.95.88-89.7 01-.89.95l-4.92-.05a1.05.83 71.3 01-.77-.5l-23.12-37.28q-.49-.79-.5.13z"/><ellipse transform="rotate(90.7 224.666 289.551)" rx="18.93" ry="18.11"/><path fill="#85dbb0" d="M137.25 126.96q-.71.47-.27 1.11.22.32.8.52 3.67 1.25 6.18 4.2.69.81.17 1.4a1.41.77-36.2 00-.38.81q.06 8.6.18 17.19.03 1.93-1.43 3.1l-9-8.83-16.21-16.71q-11.35-11.05-21.98-22.97 4.37-.83 7.46 1.14 2.12 1.34 2.19 1.38 16.23 8.68 32.29 17.66z"/><path fill="#43abc0" d="M95.31 106.78q10.63 11.92 21.98 22.97l-.09.35a.54.45 4.6 01-.5.35q-15.45.45-20.45.3-3.22-.1-4.95.31a.64.58-18.3 01-.7-.31q-.31-.67-.53-1.37-.24-.75-.13-1.9.32-3.54-1.4-6.73-.48-4.95.77-8.69 1.64-4.89 6-5.28z"/><path fill="#4bbdc4" d="M88.54 120.75q1.72 3.19 1.4 6.73-.11 1.15.13 1.9.22.7.53 1.37a.64.58-18.3 00.7.31q1.73-.41 4.95-.31 5 .15 20.45-.3a.54.45 4.6 00.5-.35l.09-.35 16.21 16.71-42.19.22a.67.63-6.7 01-.64-.48l-2.03-8.48-.1-16.97z"/><path fill="#fff" d="M298.2 146.2q10.26-11.63 24.37-16.49 9.54-3.29 19.66-2.87 19.64.8 35.31 14.77a.5.49-47 01.02.71q-3.99 3.99-7.88 7.87-.1.1-1.12 1.34-1.3 1.59-2.67.19-1.45-1.48-1.62-1.61-15.06-11.18-32.12-7.37-9.94 2.22-17.72 8.8-14.5 12.24-13.43 33.21.42 8.29 4.4 15.75 3.71 6.96 10.27 12.18 12.62 10.04 28.78 8.48 11.16-1.07 18.68-6.43 10.55-7.52 12.73-22.47a.45.44-86.1 00-.44-.51h-34.48a.51.51 0 01-.51-.51l.06-13.9a.86.85-89.3 01.86-.85l48.77.26a.85.84-2.2 01.85.78q.26 3.59.41 6.97.17 3.98-.09 7-2.03 23.24-19.93 35.71-8.17 5.69-18.21 7.97-11.01 2.51-21.9.57-21.9-3.9-35.06-20.69-13.42-17.1-11.44-38.31 1.59-17.1 13.45-30.55z"/><path fill="#9de5ab" d="M137.25 126.96l17.25 9.33q-.27.96.36 1.63a.3.25-36.2 01-.1.42l-.44.27a1.17.61 83.3 00-.34.89l-.24 24a.63.51-8.5 01-.48.52q-.75.2-.55 1.48l-8.67-8.5-1.54-1.71q1.46-1.17 1.43-3.1-.12-8.59-.18-17.19a1.41.77-36.2 01.38-.81q.52-.59-.17-1.4-2.51-2.95-6.18-4.2-.58-.2-.8-.52-.44-.64.27-1.11z"/><rect fill="#fff" x="-7.78" y="-52" transform="rotate(.1 -104243.881 367804.01)" width="15.56" height="104" rx=".43"/><path fill="#fff" d="M761.69 132.42a.66.66-89.5 01.66-.66q19.53-.17 38.4.24 9.71.21 18.56 6.94 10.38 7.88 11.39 21.8 1.08 14.81-8.39 24.57-5.51 5.69-13.33 8.02-4.82 1.44-15.09 1.63-7.72.14-15.89.03a.74.73.4 00-.75.73v38.72a.56.56 89.8 01-.56.56H762.4a.92.92-89.1 01-.92-.95q.42-14.99.22-29.54-.19-14.83-.18-20.01.07-26.12.17-52.08zm49.62 40.89q4.07-5.47 3.26-11.56-.77-5.76-5-10-5-4.99-13.07-4.88-9 .13-18.58.13a.67.67 90 00-.67.67l.06 31.52a.51.5 0 00.51.5q16.35.17 20.68.06 8.18-.2 12.81-6.44z"/><rect fill="#fff" x="844.5" y="131.76" width="15.5" height="103.24" rx=".42"/><path fill="#aaeba9" d="M154.5 136.29l7.04 3.96q-.63 1.07.65 1.56 3.11 1.21 3.72 4.13.07.32.13 5.13.16 12.47-.04 25.06a.33.33 11.2 01-.45.3q-1.03-.39-1.84.32l-9.71-9.54-1.29-1.71q-.2-1.28.55-1.48a.63.51-8.5 00.48-.52l.24-24a1.17.61 83.3 01.34-.89l.44-.27a.3.25-36.2 00.1-.42q-.63-.67-.36-1.63z"/><path fill="#50cac7" d="M88.64 137.72l2.03 8.48a.67.63-6.7 00.64.48l42.19-.22 9 8.83 1.54 1.71-52.81.25a1.47 1.46-.4 01-1.48-1.45q-.04-3.88-1.21-8.05l.1-10.03z"/><path fill="#baf2a7" d="M161.54 140.25l15.57 8.55q1.65 2.98 6.14 4.7 2.41.92 2.13 3.27-.34 2.93-.34 3 .14 6.35-.43 12.67a.64.51 13.2 00.45.57q.71.22.48 1.24l-12.33 12.5h-.17l-8-8.5-1.33-1.5q.81-.71 1.84-.32a.33.33 11.2 00.45-.3q.2-12.59.04-25.06-.06-4.81-.13-5.13-.61-2.92-3.72-4.13-1.28-.49-.65-1.56z"/><path d="M811.31 173.31q-4.63 6.24-12.81 6.44-4.33.11-20.68-.06a.51.5 0 01-.51-.5l-.06-31.52a.67.67-89.8 01.67-.67q9.58 0 18.58-.13 8.07-.11 13.07 4.88 4.23 4.24 5 10 .81 6.09-3.26 11.56z"/><path fill="#55d6ca" d="M88.54 147.75q1.17 4.17 1.21 8.05a1.47 1.46-.4 001.48 1.45l52.81-.25 8.67 8.5 1.29 1.71q-5.72 1.03-11.56.94-25.81-.38-51.62.03a.53.53 87.1 01-.54-.49q-.25-3.49-1.74-6.69v-13.25z"/><path fill="#cafaa4" d="M177.11 148.8l22.18 11.95-13.75 13.5q.23-1.02-.48-1.24a.64.51 13.2 01-.45-.57q.57-6.32.43-12.67 0-.07.34-3 .28-2.35-2.13-3.27-4.49-1.72-6.14-4.7z"/><path fill="#ffc466" d="M199.29 160.75q15.55 8.24 30.96 16.75 3.13 1.73 5.18 3.29 2.72 2.08 3.37 4.85 1.1 4.69-3.74 7.67-9.2 5.67-35.77 19.69l-26.08-26.25 12.33-12.5 13.75-13.5z"/><path fill="#5ae2cd" d="M88.54 161q1.49 3.2 1.74 6.69a.53.53 87.1 00.54.49q25.81-.41 51.62-.03 5.84.09 11.56-.94l9.71 9.54 1.33 1.5q-4.25 1.44-9.54 1.25-19.48-.7-44.5-.37-8.38.11-16.75-.11-2.01-.06-2.66.32a1.21 1.21-15.4 01-1.82-1.03q-.06-5.17-1.23-8.56V161z"/><path fill="#fff" d="M922.27 225.82q-.17-1.08-.8-.18-11.34 16.23-30.74 9.93-6.71-2.17-11.29-6.97-4.4-4.62-5.95-11.28-2.42-10.44 3.82-18.53 4.18-5.41 11.98-8.41 15.57-5.99 32.19.13a.32.32 9.6 00.44-.31q-.27-5.98-3.86-9.26-7.96-7.3-18.73-4.8-6.4 1.49-10.11 7.06a.91.89 29.6 01-1.15.3l-11.95-5.69a.95.94 28.8 01-.4-1.35q6.72-10.75 17.89-13.92 7.9-2.24 16.89-1.16 9.1 1.09 16.19 6.43 6.77 5.1 9.47 13.22 1.57 4.71 1.72 15.61.26 18.38.11 37.6a.77.77-89.6 01-.77.76h-14.19a.71.71-86.4 01-.7-.8q.54-4.4-.06-8.38zm-31.33-18.63q-3.75 6.14.04 10.31 2.69 2.97 7.91 3.91 7.1 1.29 13.17-2.6 7.2-4.61 10.14-12.67a1.29 1.27 29.3 00-.42-1.45q-2.21-1.7-5.07-2.55-8.91-2.65-17.88-.25-5.56 1.48-7.89 5.3zm82.55 24.55l-29.2-65.76a.34.34-12.5 01.31-.48l16.15-.43a1.3 1.27 77.2 011.2.77l19.74 45.73q.32.75.62-.01l18.17-45.61a1.47 1.38-77.7 011.35-.93l16.61.5a.37.35-77.4 01.3.51l-43.83 100.62a.58.58-78.4 01-.53.35h-16.33a.54.54 12.9 01-.49-.78l15.92-33.59a1.07 1.06 46 00.01-.89zM413.58 172q8.01-5.57 17.97-6.06 9.41-.46 17.9 3.62 10.46 5.03 15.65 15.31 4.54 8.96 3.84 19.35-.94 13.89-11.17 23.05-7.18 6.42-16.38 8.51-9.71 2.21-19.14-1.03-18.89-6.49-23.25-25.25-2.76-11.89 1.95-22.33 4.19-9.3 12.63-15.17zm19.127 50.5a21.39 19.96 92.5 0020.874-20.5 21.39 19.96 92.5 00-19.008-22.24 21.39 19.96 92.5 00-20.874 20.5 21.39 19.96 92.5 0019.008 22.24zm114.029-20.247a35.55 35.46 1.6 01-36.526 34.453 35.55 35.46 1.6 01-34.546-36.439 35.55 35.46 1.6 0136.526-34.453 35.55 35.46 1.6 0134.546 36.439zm-36.29 20.243a21.39 19.95 92.1 0020.72-20.645 21.39 19.95 92.1 00-19.152-22.107 21.39 19.95 92.1 00-20.72 20.645 21.39 19.95 92.1 0019.152 22.107zM676.79 212.26q5.43 10.54 17.7 10.07 10.32-.39 15.97-8.77a.76.72 33 011.01-.19l11.34 7.26a.47.45 35.2 01.13.67q-8.85 11.41-21.5 14.26-10.1 2.28-19.72-.99-7-2.39-12.44-7.52-5.03-4.74-7.91-11.75-6.28-15.25.64-30.06 3.55-7.6 9.19-12.13 6.14-4.92 14.31-6.54 9.32-1.84 17.46 1.39 7.1 2.82 12.55 9.55 4.98 6.14 7.73 14.22a.55.55-20.9 01-.31.69l-45.92 19.2a.47.46 65.2 00-.23.64zm1.4-25.32q-4.53 5.63-4.39 12.5a.35.34-12.1 00.48.31l30.76-12.56a.43.42 62.9 00.2-.62q-5.09-8.08-14.97-6.67-7.26 1.04-12.08 7.04zm-71.77 41.64q-5.68 7.47-15.92 7.93-7.59.33-14.27-2.41-6.21-2.54-11.61-7.97-12.98-13.06-9.37-32.38 2.14-11.44 12.23-20.01 10.49-8.9 23.52-7.74 8.71.77 15.64 7.4.4.38.43-.15l.25-4.43a.55.5-88.2 01.5-.52h13.42a.76.75 90 01.75.76q.19 34.32-.24 66.94-.09 7.17-4.06 15.69-2.96 6.35-8.72 10.47-5.12 3.67-12.18 5.1-5.19 1.06-10.52.77-5.41-.29-10.2-2.18-12.4-4.9-18.44-17.66a.89.88-24 01.47-1.2l12.02-4.88a.66.65-24.6 01.83.3q5.43 10.59 15.63 11.56 7.3.71 12.75-2.73 6.1-3.84 7.22-12.32.65-4.94.7-10.06.02-1.4-.83-.28zm-17.43-5.932a21.47 19.18 90.8 0019.478-21.2 21.47 19.18 90.8 00-18.878-21.736 21.47 19.18 90.8 00-19.478 21.2 21.47 19.18 90.8 0018.878 21.736z"/><path fill="#5eedd0" d="M88.54 169.75q1.17 3.39 1.23 8.56a1.21 1.21-15.4 001.82 1.03q.65-.38 2.66-.32 8.37.22 16.75.11 25.02-.33 44.5.37 5.29.19 9.54-1.25l8 8.5q-.51.78-1.27 1.18-5.46 1.54-11.07 1.11-6.89-.52-7.95-.52-28.63.16-56.94.04-1.55 0-3.04.43-2.25.66-2.59-1.27-.45-2.49-1.64-4.72v-13.25z"/><path d="M678.19 186.94q4.82-6 12.08-7.04 9.88-1.41 14.97 6.67a.43.42 62.9 01-.2.62l-30.76 12.56a.35.34-12.1 01-.48-.31q-.14-6.87 4.39-12.5z"/><ellipse transform="rotate(90.8 195.45 391.15)" rx="21.47" ry="19.18"/><ellipse transform="rotate(92.5 120.55 308.125)" rx="21.39" ry="19.96"/><ellipse transform="rotate(92.1 158.675 346.974)" rx="21.39" ry="19.95"/><path fill="#63f7d2" d="M88.54 183q1.19 2.23 1.64 4.72.34 1.93 2.59 1.27 1.49-.43 3.04-.43 28.31.12 56.94-.04 1.06 0 7.95.52 5.61.43 11.07-1.11l-2.77 3.05L158.79 201q.49-2.04-1.48-2.06-9.5-.11-12.31.06-1.8.11-2.77-.1a1.6 1.41 37 00-.92.07q-1.02.45-2.31.28-5.85-.75-12.14-.57-8.38.24-12.11.09-10.06-.42-13.5-.02-2.78.32-7.81-.19-1.63-.16-2.61 1.21a.32.3-42.9 01-.52 0q-.19-.34-.34-.69-.21-.48-.12-1.2.34-2.74-1.3-4.9l-.01-9.98z"/><path fill="#d43f65" d="M173.04 186.75h.17L199.29 213l-30.75 16.75q-.09-.32-.31-.53a.38.32 50.8 01.01-.54q1.59-.97 2.95-2.25.3-.29.32-.58.04-.44-.3-.67a1.04.65 23.3 01-.48-.69q-.59-14.14-.23-25.24.11-3.33-.23-5.69a.62.56-2.7 00-.58-.48q-1.76-.05-.69-2.1l2.77-3.05q.76-.4 1.27-1.18z"/><path fill="#ca3e74" d="M169 190.98q-1.07 2.05.69 2.1a.62.56-2.7 01.58.48q.34 2.36.23 5.69-.36 11.1.23 25.24a1.04.65 23.3 00.48.69q.34.23.3.67-.02.29-.32.58-1.36 1.28-2.95 2.25a.38.32 50.8 00-.01.54q.22.21.31.53l-7.4 3.78q-1.34-15.16-.55-30.34.08-1.56-.87-.7-1.37 1.24-1.01-1.24l.08-.25L169 190.98z"/><path fill="#66ffd4" d="M88.55 192.98q1.64 2.16 1.3 4.9-.09.72.12 1.2.15.35.34.69a.32.3-42.9 00.52 0q.98-1.37 2.61-1.21 5.03.51 7.81.19 3.44-.4 13.5.02 3.73.15 12.11-.09 6.29-.18 12.14.57 1.29.17 2.31-.28a1.6 1.41 37 01.92-.07q.97.21 2.77.1 2.81-.17 12.31-.06 1.97.02 1.48 2.06l-.08.25-11.5 11.75-18 18-34.96 35.46q-5.74-2.5-5.75-8.46-.04-32.48.05-65.02z"/><path d="M890.94 207.19q2.33-3.82 7.89-5.3 8.97-2.4 17.88.25 2.86.85 5.07 2.55a1.29 1.27 29.3 01.42 1.45q-2.94 8.06-10.14 12.67-6.07 3.89-13.17 2.6-5.22-.94-7.91-3.91-3.79-4.17-.04-10.31z"/><path fill="#c23c7f" d="M158.71 201.25q-.36 2.48 1.01 1.24.95-.86.87.7-.79 15.18.55 30.34-4.42 3.11-10.6 5.97-1-.36-.75-1.1.27-.78.28-.85.47-3.36.37-6.74-.17-5.52-.17-5.61.04-8.99-.08-11.39-.06-1.14-.88-1.26a1.07.52-56.4 00-.75.44q-.5.6-1.35.01l11.5-11.75z"/><path fill="#b83b8f" d="M150.54 239.5l-20.5 11.29q-.51-3.32-.29-5.04.82-6.5-1.04-12.71a.79.63-31.3 01.27-.75q.6-.53.23-1.29l18-18q.85.59 1.35-.01a1.07.52-56.4 01.75-.44q.82.12.88 1.26.12 2.4.08 11.39 0 .09.17 5.61.1 3.38-.37 6.74-.01.07-.28.85-.25.74.75 1.1z"/><path fill="#a738a8" d="M129.21 231q.37.76-.23 1.29a.79.63-31.3 00-.27.75q1.86 6.21 1.04 12.71-.22 1.72.29 5.04-13.17 7.21-26.48 14.27-4.85 2.58-9.31 1.4L129.21 231z"/></svg>