<svg xmlns="http://www.w3.org/2000/svg" version="1.2" baseProfile="tiny" viewBox="0 0 1020 333"><g stroke-width="2" fill="none" stroke="#818181"><path vector-effect="non-scaling-stroke" d="M169.56 54.69q-5.49-4.2-14.07-3.55-8.92.67-17.38 3.25-10.07 3.06-14.98 7.92-6.62 6.54-6.88 16.69-.42 16.5-.24 33.77a.55.53 83.6 00.64.54l4.56-.99a.65.62 83.9 00.48-.63q-.03-14.63.21-29.25.22-13.54 12.24-19.21 7.34-3.46 15.31-4.97 4.98-.94 9.55-.26 9.69 1.45 12.17 11.02 1.3 5.03 1.31 10.23.02 9.82.02 19.64 0 .18-.1 1.72-.16 2.42 1.69 1.18a1.47 1.42 29.8 01.91-.23q1.51.12 2.77-.61a.92.85 76.9 00.43-.76q.26-13.23-.32-26.43-.21-4.86-1.65-9.5-1.82-5.87-6.67-9.57m30 15.25q-6.99-3.87-15.93-1.38a.61.55 79 00-.39.64l.58 4.24a.73.62 83.7 00.68.64q4.48-.36 7.9.19 4.99.79 5.92 5.76 1.36 7.29.88 15.66a.59.51 87.6 00.6.63l4.73-.88a.74.58 87.5 00.49-.69q.42-11.94-1.52-19-1.18-4.29-3.94-5.81"/><path vector-effect="non-scaling-stroke" d="M150.34 85.25q-1.9 5.23-1.73 11 .14 4.75.14 9.89a.47.42 84.6 00.51.47l4.72-.99a.72.58 85.1 00.46-.68q.01-4.56.14-9.12.18-6.06 1.55-8.9 2.61-5.39 9.11-7.85a1.93 1.8 76.2 001.13-2.02l-.54-3.96a.51.5 78.5 00-.63-.43q-5.41 1.52-9.2 4.49-3.81 2.97-5.66 8.1m620.13 25.63a.9.9-4.1 011.03.89v39.11a.87.87 0 00.87.87h6.11a.52.52 90 00.52-.52v-39.46a.72.71 89.6 01.7-.72l9.64-.05a.66.65 0 00.66-.65v-5.08a.52.52 90 00-.52-.52h-6.99q-.1 0-1.47.11-2.21.17-2.14-1.95.07-1.77.06-1.82-.23-4.61.56-7.34 2.52-8.69 12.13-5.37a.22.22-81.2 00.29-.22l-.23-5.6a.81.73-81.2 00-.46-.7q-3.48-1.44-7.79-.42-8.55 2.01-10.77 10.06-1.55 5.63-1.12 12.24a.95.95 88.3 01-.95 1.01h-6.22a.86.84 0 00-.86.84l.02 4.6a.6.58 4.6 00.51.58q3.4.57 6.42.11m-190.72-28.4a.41.41 0 00-.41-.41h-6.44a.41.41 0 00-.41.41v68.86a.41.41 0 00.41.41h6.44a.41.41 0 00.41-.41V82.48m145.48 27.58q-3.37-4.77-9.26-5.93-8.17-1.6-14.52 2.04-5.63 3.23-8.67 10.54-3.33 8.01-2.21 16.76.95 7.46 4.26 12.14 4.15 5.88 11.73 7.08 11.7 1.85 19.08-7.98.32-.42.32.1l.01 5.85a1.15 1.12.8 001.12 1.12l5.75.12a.65.59.5 00.66-.59v-68.5a.53.5 90 00-.5-.53l-6.31.11a.56.52-89.4 00-.52.55l-.1 26.85q-.01 1.46-.84.27m-343.42 29.5q7.12-8.63 7.14-21.31.01-8.65-2.51-15.19-3.91-10.14-14.69-14.31-7.35-2.84-15.25-2.8-9.87.05-19.75.05a.5.5 0 00-.5.5v64.69a.56.56 0 00.56.56q8.06 0 15.94-.05 6.9-.04 13-1.7 9.61-2.61 16.06-10.44m-126-35.11q-8.93-3.18-17.79-6.53-2.15-.81-3.66-.8-1.7.02-3.8.44-79.28 15.97-158.43 31.91a1.1 1.1 84.2 00-.88 1.08v117.44a.81.8-84.3 00.64.79l161.54 32.43a4.88 4.69 39.7 002.56-.19l30.67-11.2a1.29 1.26 80.4 00.84-1.21V109.42a.77.76-79.3 00-.48-.71q-5.82-2.35-11.21-4.26m145.88 7.24q-4.32 5.59-5.07 12.37-.75 6.74.86 12.95 1.59 6.15 6.36 10.28 4.34 3.77 10.41 5.11 6.66 1.47 12.94-.71 13.57-4.72 14.99-19.95.7-7.56-.18-10.74-5.6-20.22-27-16.98-8.37 1.27-13.31 7.67m126.05-.25l-.32-5.88a.62.47 88.2 00-.48-.59l-6.03-.1a.93.84-89.4 00-.85.92l-.06 45.18a.8.78.4 00.79.78l6.19.09a.51.49.6 00.52-.49q0-13.1-.01-26.1 0-6.29 3.58-10.52 3.5-4.14 9.12-4.64 6.66-.59 9.62 5.39 1.49 3.01 1.59 9.18.22 12.79.09 26.19a.9.89.3 00.9.9h5.93a.93.92-89.7 00.92-.92q.12-12.66-.1-24.8-.17-9.36-1.49-12.89-2.75-7.34-10.66-9.09-5.4-1.2-10.34.78-5.07 2.03-8.54 6.7-.34.45-.37-.09m65.24 5.33q-4.47 10.09-1.04 21.04 2.5 8.02 9.17 11.87 5.73 3.31 13.76 3.03 14-.48 19.5-13.26 2.37-5.52 2.42-11.67.04-6.43-2.35-11.97-3.52-8.13-11.17-10.82-6.94-2.44-14.51-1-5.37 1.03-9.64 4.51-3.88 3.15-6.14 8.27m80.23 28.57l.04 5.67a.8.75.8 00.78.75l5.53.18a.91.82 1 00.94-.82V118.5q0-8.04-5.7-11.98-4.56-3.15-11.65-2.83-7.2.32-14.29 3.92a1.13 1.11 76.7 00-.61 1v5.91q0 1.05.84.43 5.61-4.19 12.17-4.83 11.34-1.1 11.77 11.08a.76.75-5.5 01-.65.78q-6 .9-11.9 1.56-4.68.52-8.91 2.53-7.47 3.56-7.82 11.93-.26 6.41 3.1 10.2 3.01 3.39 8.74 4.36 9.9 1.67 17.02-7.41.59-.75.6.19m157.66-33.96q-3.2 3.85-4.43 9.06-1.44 6.06-.79 11.95.72 6.47 3.82 11.07 2.78 4.13 7.2 6.58 3.92 2.18 9.1 2.72 5.32.56 9.67-.82 12.62-4.01 15.19-16.43 1.06-5.15.74-10.54-.33-5.59-2.68-10.41-4.07-8.32-13.61-10.43-4.89-1.08-10.83-.13-8.35 1.33-13.38 7.38m58.93-.35l-.05-5.59a.68.66 90 00-.66-.68l-6.15.04a.72.69-90 00-.69.72v45.6a.85.79-.7 00.87.79l5.72-.15a.94.89-1 00.92-.9q-.17-14.36.18-27.99.07-2.77.78-4.64.92-2.41 2.34-4.17 3.78-4.66 9.27-4.05 3.72.41 6.17 2.8 2.6 2.55 3.02 6.61.26 2.4.25 4.83-.02 13.38-.02 26.82a.67.66 90 00.66.67l6.28-.04a.52.5 90 00.5-.52q.05-12.48.11-24.97.01-3.95.67-6.21.96-3.29 2.84-5.69 5.52-7.01 14-2.87 2.68 1.31 3.45 4.73.66 2.97.69 3.11.23 1.27.3 3.22.46 13.5-.04 28.27a.91.89-88.7 00.88.94l6.11.04a.56.55-90 00.55-.56q.04-15.77-.05-30.93-.01-1.84-.31-3.37-.33-1.67-.76-3.31-1.05-4.02-3.9-6.51-2.42-2.13-6.56-3.03-11.85-2.56-18.94 8.4-.35.54-.62-.05-4.96-10.76-17.06-8.18-6.51 1.39-10.12 6.99-.62.97-.63-.17m-85.06 2.17l-.17-7.52a.9.77 88.9 00-.78-.88l-6.1.08a.57.51-89.9 00-.5.56l-.21 45.5a.8.79-89.6 00.79.81h5.89a.86.86 89.7 00.86-.87q-.2-13.63.23-26.13.21-6.07 4.22-10.5 2.52-2.77 5.34-3.31 3.05-.57 6.62.84a.6.55 9.9 00.82-.53l-.46-6.38a.81.75 2 00-.71-.7q-7.75-.99-12.02 3.64-1.65 1.8-3.52 5.44-.29.55-.3-.05m-310.55 29.76l-10.18-37.47a.93.87 81.5 00-.87-.69l-5.7.08a.76.67-81.1 00-.65.54l-11.41 37.66q-.23.77-.44 0l-10.12-37.54a.79.79-2.3 00-.62-.57q-3.35-.56-6.7-.05a.44.43-12.1 00-.36.55l13.68 45.74a.75.73 81.4 00.7.53l6.42-.04a.68.67-81.1 00.64-.48l11.33-35.93q.15-.48.28 0l10.08 35.52a1.1.98 83.1 00.9.79l6.2.38a1.04.95-79.7 00.98-.75l13.81-45.99a.38.38 8 00-.37-.49h-6.25a.87.85-81.8 00-.82.63l-10.27 37.57q-.13.49-.26.01m33.25 83.74q-.01 1.33-.79.25-3.94-5.42-9.91-6.34-4.07-.63-8.48.24-4.39.86-7.82 3.84-5.89 5.11-7.59 12.49-1.07 4.63-1.01 10.03.05 5.23 1.91 10.04 5.04 13.05 19.49 12.14 8.81-.55 13.57-7.85.57-.86.81.18.07.29.03.68-.27 2.56-.14 5.33a.55.54 88.3 00.54.52h6.7a.5.5 0 00.5-.5v-68.09a.66.66 90 00-.66-.66h-6.46a.45.44-89.3 00-.44.44l-.25 27.26m-96.33-22.09a4.87 4.87 0 00-4.87-4.87 4.87 4.87 0 00-4.87 4.87 4.87 4.87 0 004.87 4.87 4.87 4.87 0 004.87-4.87m296.53 61.9q11.85 5.17 23.36 1.74 9.44-2.81 11.63-11.78 1.13-4.66-.04-8.92-1.28-4.7-5.03-7.86-5.77-4.88-15.25-10-2.77-1.5-4.98-4.07-2.25-2.62-2.64-5.65-.59-4.68 2.54-7.86 2.45-2.49 6.81-3.32 8.2-1.55 15.72 3.28.47.29.46-.24l-.11-7.64a.79.72 10.8 00-.51-.68q-5.39-2-13.35-1.76-10.24.31-15.79 6.99-2.85 3.43-3.57 7.7-.75 4.52.9 8.77 1.25 3.24 4.47 6.29 2.95 2.78 6.24 4.75 6.43 3.84 10.04 6.18 3.6 2.34 4.65 4.38 4.1 7.99-.67 12.54-3.51 3.35-9.98 3.23-8.36-.16-15.4-5.29-.45-.33-.43.21l.4 8.32a.89.74 12.7 00.53.69m-355.63-51.2q.63 3.87 2.99 12.44 5.47 19.88 11.17 39.7a.78.66 81.2 00.63.55l8.2.28a.68.63-81.2 00.63-.5l18.12-64.04a.98.94-82.7 00-.92-1.25l-6.78.27a.73.65-82.6 00-.62.54l-14.36 54.65q-.13.47-.26 0l-14.98-54.66a.74.66 81.7 00-.64-.54l-5.73-.11a1.54 1.33-80.2 00-1.35 1.11l-15.86 54.75q-.38 1.31-.44-.06-.13-3.41-1.05-6.69-6.53-23.37-13.32-47.85a1.43 1.3 81.4 00-1.3-1.06l-6.64.09a.43.4 80.6 00-.36.55l18.53 64.24a.67.67-8.1 00.64.48l8.07.05a.71.68-81.5 00.66-.51l14.76-52.44q.13-.47.21.01m402.43 13.25q.11 14.72.23 29.44.07 9.26 8.39 11.19 4.4 1.02 9.66-.83a.9.88-4.3 00.58-.66q.52-2.6.05-5.22a.37.36-19.5 00-.53-.24q-3.38 1.77-7.01.46-2.54-.92-3.27-3.2-.07-.22-.73-3.47-.35-1.74-.35-3.53.04-12 .04-23.65a.87.86-.3 01.86-.86l10.59-.04a.53.5-1.1 00.52-.51l-.1-5.5a.56.51-.5 00-.56-.5l-10.6-.18a.73.73.8 01-.71-.73v-11.87q0-.51-.17-.78-.39-.63-1.01-.01-.35.35-.81.49l-4.36 1.39a.77.69 83.2 00-.48.69l-.34 10.37a.53.49.5 01-.52.47l-6.82.16a.59.56-1.1 00-.57.56l-.06 5.32a.6.53 1.1 00.58.53l7 .21a.52.5 1.2 01.5.5m-323.73-.36q-.54-2.72-.21-4.45.55-2.87-1.42-2.57-1.75.26-2.19.25-1.69-.04-3.34.28a.61.61-5.8 00-.49.6v45.39a.5.5 0 00.5.5l6.42.05a.53.52 90 00.52-.53v-22.26q0-7.26 1.23-10.26 2.19-5.36 7.87-7.65 2.58-1.05 4.93-.93 2.82.14 4.91 1.69 4.85 3.59 4.92 10.44.14 14.38.14 28.98a.52.52 0 00.52.52h6.73a.5.5 0 00.5-.5q0-12.37-.13-24.75-.09-8.87-.87-11.25-4.54-13.9-19-11-6.64 1.33-11.15 7.53-.29.41-.39-.08m103.31 36.26q5.61 4.8 12.73 5.04 18.93.65 23.96-15.79 1.17-3.82 1.26-8.16.1-4.32-.72-8.3-1.27-6.19-5.38-10.54-3.86-4.09-9.83-5.62-6.72-1.72-13.54.16-13.53 3.73-15.92 18.01-.46 2.77-.52 7.18-.15 11.09 7.96 18.02m113.28 2.68q5.95 2.58 11.98 2.39 6.89-.21 11.26-3.47 4.79-3.56 4.79-10.11.01-3.97-2.03-6.98-2.21-3.25-5.86-4.91-4.85-2.19-8.25-4.08-2.59-1.45-3.62-2.82-1.65-2.2-1.03-4.78.72-3.04 3.78-4.64 3.38-1.78 7.68-.74 3.87.93 6.57 2.5a.34.3 16.2 00.5-.24l.06-6.34a.86.67 13.9 00-.53-.68q-6.52-2.71-13.59-1.44-6.96 1.24-10.25 6.69-1.92 3.19-1.96 6.82-.04 3.95 2.16 7.09 1.66 2.35 5.9 4.73 3.33 1.87 6.81 3.46 4.21 1.92 5.08 3.66 1.94 3.89.07 6.78-1.48 2.26-5.09 2.93-7.63 1.42-14.06-3.66-.92-.73-.92.45v6.55a.92.89-78.9 00.55.84m139.3-2.23q4.51 3.72 10.65 4.34 18.25 1.83 24.77-12.87 1.89-4.26 2.27-9.63.42-5.74-.79-10-4.94-17.46-23.51-16.48-7.96.42-13.43 5.04-7.31 6.18-7.85 16.45-.14 2.67-.19 5.33-.05 3.19.4 5.29 1.61 7.51 7.68 12.53m55.64-35.2q-.47-2.97-.19-7.25a1.14 1.11-88.3 00-1.11-1.21l-5.39.05a.64.62 89.5 00-.61.64l-.19 45.56a.56.5-89.5 00.49.56l6.45.16a.5.46 89.3 00.47-.53q-.65-14.18.5-28.32.09-1.12.49-2.18.39-1.04.8-2.08.72-1.84 1.51-2.96 4.76-6.72 13.07-3.58a.4.35 11.4 00.54-.31l.06-6.34a.82.67 12.3 00-.53-.67q-4.9-1.85-9.46.86-4.48 2.67-6.15 7.66-.5 1.52-.75-.06m29.32 17.34l31.68-.3a.82.81-.4 00.81-.81q.07-7.75-1.74-14-1.31-4.55-5.29-7.59-3.44-2.62-8.13-3.58-5.93-1.21-11.42.92-5.19 2.01-8.82 6.58-4.07 5.11-5.11 11.99-1.42 9.36 1.77 17.18 4.75 11.63 17.93 12.21 8.95.38 17.07-4.17a.87.86-15 00.44-.75v-6q0-.88-.69-.33-4.63 3.71-10.31 4.61-5.87.94-10.74-1.38-7.86-3.74-7.95-14.07a.51.51-.6 01.5-.51m-461.57-25.3a.28.28 0 00-.28-.28h-6.94a.28.28 0 00-.28.28v46.22a.28.28 0 00.28.28h6.94a.28.28 0 00.28-.28v-46.22m213.95 38.46l-10.36-38.16a.87.85 88.2 00-.64-.61q-2.9-.63-5.77.11a.92.91-88.7 00-.63.61l-11.58 37.54q-.15.48-.28.01l-10.32-37.97a.66.66-7.4 00-.64-.49h-6.21a.84.84-8.4 00-.81 1.08l13.72 45.38a.7.64 80.6 00.64.51l6.5-.11a.77.69-80.4 00.66-.53q5.63-17.38 10.95-34.85.17-.58.42-.66a.65.33 82.9 01.44.66q.11 1.28.48 2.52 4.84 15.96 9.29 32.49a.68.67 82 00.65.5l6.99-.04a.67.67 8.1 00.64-.48l13.54-45.04a1.15 1.12 7.5 00-1.14-1.44l-4.39.1a1.98 1.83 6.4 00-1.84 1.36l-10.06 37.51q-.12.46-.25 0"/><path vector-effect="non-scaling-stroke" d="M701.94 115.44q-3.16 4.16-3.61 8.79-.5 5.11.17 9.52 1.25 8.24 7.55 11.21 5.93 2.79 11.9-.05 6.3-3.01 7.8-11.16.55-2.99.22-10.01-.21-4.48-1.77-7.16-3.69-6.35-11.34-6.5-3.49-.07-6.05 1.2-2.77 1.38-4.87 4.16m-326.38 20.12q4.55-6.07 5.21-13.56.66-7.62-1.27-14.04-2.89-9.61-13.58-13.36-4.26-1.49-8.74-1.62-4.2-.12-4.36-.13-3.99-.22-8.24-.09a.86.86-1 00-.83.86l.06 50.08a.68.68 8.7 00.48.65q1.57.48 3.17.4 3.45-.16 3.61-.15 7.9.32 13.18-1.35 7.28-2.3 11.31-7.69m-229.77 36.33q-.14 6.23-.03 12.81a.56.56 89.5 00.56.55h46.12a.56.56 0 00.56-.56v-39.4a.81.81 86 00-.92-.8Q172 147.38 152 150.25q-4.12.59-5.73 1.14a.73.68 82.2 00-.47.67q-.12 4.96-.02 9.92.11 5.27.01 9.91m-2.97-19.99a.31.31 86 00-.35-.31l-35.06 4.78a.77.76 86.1 00-.66.76v27.56a.56.55 90 00.55.56l35.14-.06a.5.49-90 00.49-.5l-.11-32.79m-35.23 67.15l33.97 4.78a1.1 1.1 4.3 001.26-1.08l.18-33.58a.91.91-89.7 00-.91-.92h-34.78a.56.56 0 00-.56.56v29.27a.98.98-85.9 00.84.97m84.48-30.62l-45.55-.17a.77.76-89.6 00-.77.77l.06 34.29a1.09 1.08 4.3 00.93 1.07l44.92 6.45a1.17 1.17-85.8 001.34-1.16v-40.3a.95.94-89.7 00-.93-.95m215.49-72.59q-2.6 3.44-3.06 8.66-.36 4.05-.07 7.37.35 3.96 2.05 6.99 2.84 5.06 8.25 6.78 5.06 1.62 10.05.04 7.01-2.21 9.16-10.24 1.96-7.34-.06-14.41-1.53-5.32-4.83-8.05-3.87-3.19-9.55-3.12-7.52.1-11.94 5.98m195.12-.91q-3.49 4.12-4.16 9.18-.61 4.61.29 9.77 1.24 7.03 7.16 10.32 5.35 2.98 11.42 1.85 8.88-1.66 11.01-12.12 1.48-7.28-.46-13.62-3.18-10.35-14.44-10.34-6.63.01-10.82 4.96m49.08 21.35q-1.38 6.29 3.56 8.86 3.71 1.93 8.16.74 5.45-1.45 8.09-6.68 1.01-2.01 1.34-4.95.3-2.7.28-5.18a.94.93 86.2 00-1.05-.92q-7.21.84-13.46 1.98-2.64.49-4.57 2.05-1.78 1.46-2.35 4.1m185.6-21.42q-2.79 3.16-3.61 7.64-.78 4.28-.5 8.34.31 4.44 2.22 7.89 4.02 7.25 12.34 7.6 5.38.23 9.41-2.45 4.59-3.04 5.83-8.65.67-3.06.7-7.98.02-4.51-1.25-8-3.43-9.42-14.25-9.31-6.61.07-10.89 4.92M505.71 260.53q4.5 3.25 9.42 2.61 4.54-.59 8.08-4.17 4.76-4.82 4.45-12.48-.11-2.75-.14-5.5-.05-3.5-.71-5.4-1.84-5.26-6.87-7.53-6.65-3-12.13.25-5.7 3.39-7.41 9.92-.99 3.81-.92 8.1.08 4.13 1.57 8.11 1.42 3.76 4.66 6.09m56.99 1.27q3.81 1.73 8.55 1.2 8.64-.97 11.41-8.78 2.56-7.24 1.19-14.39-1.26-6.51-5.23-10.01-4.83-4.27-12.12-2.82-9.52 1.9-11.81 10.54-1.23 4.62-1.08 9.46.16 5.1 2.94 9.33 2.51 3.82 6.15 5.47m249.53-1.8q5.28 4.12 12.02 2.97 8.98-1.53 11.35-10.31 2.11-7.82.34-14.6-2.23-8.53-9.49-10.64-6.64-1.93-12.61 1.39-6.37 3.55-7.46 12.21-.52 4.11-.08 8.22.71 6.69 5.93 10.76m81.99-27.54q-2.1 2.93-2.94 7.28a.43.43-84.9 00.42.51l23.99-.06a.51.51-89.4 00.51-.5q.12-6.06-3.6-9.64-3.76-3.62-9.13-3.18-5.55.45-9.25 5.59"/></g><path fill="#020202" d="M3.95 33.94q2.17-7.26 6.55-13.18 4.23-5.7 10.18-10.34 9.12-7.11 20.88-8.86Q50.49.24 60.35.39q7.68.11 7.82.11H965q9.21 0 15.27.88 12.42 1.79 21.9 9.93 12.91 11.08 15.52 28.25 1.19 7.84 1.18 14.69-.12 112-.12 224 0 10.96-2.25 20-2.02 8.14-7.43 14.97-5.18 6.56-11.98 11.19-8.64 5.88-19.43 7.18-.59.07-4.68.61-2.35.31-4.73.31-456.38-.01-912.75-.01-6.78 0-11.52-.56-13.4-1.58-23.46-9.44-7.14-5.58-11.72-12.74-4.69-7.34-6.3-16.51-1.52-8.63-1.5-16 .25-112.5.28-225 0-9.36 2.67-18.31zm165.61 20.75q-5.49-4.2-14.07-3.55-8.92.67-17.38 3.25-10.07 3.06-14.98 7.92-6.62 6.54-6.88 16.69-.42 16.5-.24 33.77a.55.53 83.6 00.64.54l4.56-.99a.65.62 83.9 00.48-.63q-.03-14.63.21-29.25.22-13.54 12.24-19.21 7.34-3.46 15.31-4.97 4.98-.94 9.55-.26 9.69 1.45 12.17 11.02 1.3 5.03 1.31 10.23.02 9.82.02 19.64 0 .18-.1 1.72-.16 2.42 1.69 1.18a1.47 1.42 29.8 01.91-.23q1.51.12 2.77-.61a.92.85 76.9 00.43-.76q.26-13.23-.32-26.43-.21-4.86-1.65-9.5-1.82-5.87-6.67-9.57zm30 15.25q-6.99-3.87-15.93-1.38a.61.55 79 00-.39.64l.58 4.24a.73.62 83.7 00.68.64q4.48-.36 7.9.19 4.99.79 5.92 5.76 1.36 7.29.88 15.66a.59.51 87.6 00.6.63l4.73-.88a.74.58 87.5 00.49-.69q.42-11.94-1.52-19-1.18-4.29-3.94-5.81zm-49.22 15.31q-1.9 5.23-1.73 11 .14 4.75.14 9.89a.47.42 84.6 00.51.47l4.72-.99a.72.58 85.1 00.46-.68q.01-4.56.14-9.12.18-6.06 1.55-8.9 2.61-5.39 9.11-7.85a1.93 1.8 76.2 001.13-2.02l-.54-3.96a.51.5 78.5 00-.63-.43q-5.41 1.52-9.2 4.49-3.81 2.97-5.66 8.1zm620.13 25.63a.9.9-4.1 011.03.89v39.11a.87.87 0 00.87.87h6.11a.52.52 90 00.52-.52v-39.46a.72.71 89.6 01.7-.72l9.64-.05a.66.65 0 00.66-.65v-5.08a.52.52 90 00-.52-.52h-6.99q-.1 0-1.47.11-2.21.17-2.14-1.95.07-1.77.06-1.82-.23-4.61.56-7.34 2.52-8.69 12.13-5.37a.22.22-81.2 00.29-.22l-.23-5.6a.81.73-81.2 00-.46-.7q-3.48-1.44-7.79-.42-8.55 2.01-10.77 10.06-1.55 5.63-1.12 12.24a.95.95 88.3 01-.95 1.01h-6.22a.86.84 0 00-.86.84l.02 4.6a.6.58 4.6 00.51.58q3.4.57 6.42.11zm-190.72-28.4a.41.41 0 00-.41-.41h-6.44a.41.41 0 00-.41.41v68.86a.41.41 0 00.41.41h6.44a.41.41 0 00.41-.41V82.48zm145.48 27.58q-3.37-4.77-9.26-5.93-8.17-1.6-14.52 2.04-5.63 3.23-8.67 10.54-3.33 8.01-2.21 16.76.95 7.46 4.26 12.14 4.15 5.88 11.73 7.08 11.7 1.85 19.08-7.98.32-.42.32.1l.01 5.85a1.15 1.12.8 001.12 1.12l5.75.12a.65.59.5 00.66-.59v-68.5a.53.5 90 00-.5-.53l-6.31.11a.56.52-89.4 00-.52.55l-.1 26.85q-.01 1.46-.84.27zm-343.42 29.5q7.12-8.63 7.14-21.31.01-8.65-2.51-15.19-3.91-10.14-14.69-14.31-7.35-2.84-15.25-2.8-9.87.05-19.75.05a.5.5 0 00-.5.5v64.69a.56.56 0 00.56.56q8.06 0 15.94-.05 6.9-.04 13-1.7 9.61-2.61 16.06-10.44zm-126-35.11q-8.93-3.18-17.79-6.53-2.15-.81-3.66-.8-1.7.02-3.8.44-79.28 15.97-158.43 31.91a1.1 1.1 84.2 00-.88 1.08v117.44a.81.8-84.3 00.64.79l161.54 32.43a4.88 4.69 39.7 002.56-.19l30.67-11.2a1.29 1.26 80.4 00.84-1.21V109.42a.77.76-79.3 00-.48-.71q-5.82-2.35-11.21-4.26zm145.88 7.24q-4.32 5.59-5.07 12.37-.75 6.74.86 12.95 1.59 6.15 6.36 10.28 4.34 3.77 10.41 5.11 6.66 1.47 12.94-.71 13.57-4.72 14.99-19.95.7-7.56-.18-10.74-5.6-20.22-27-16.98-8.37 1.27-13.31 7.67zm126.05-.25l-.32-5.88a.62.47 88.2 00-.48-.59l-6.03-.1a.93.84-89.4 00-.85.92l-.06 45.18a.8.78.4 00.79.78l6.19.09a.51.49.6 00.52-.49q0-13.1-.01-26.1 0-6.29 3.58-10.52 3.5-4.14 9.12-4.64 6.66-.59 9.62 5.39 1.49 3.01 1.59 9.18.22 12.79.09 26.19a.9.89.3 00.9.9h5.93a.93.92-89.7 00.92-.92q.12-12.66-.1-24.8-.17-9.36-1.49-12.89-2.75-7.34-10.66-9.09-5.4-1.2-10.34.78-5.07 2.03-8.54 6.7-.34.45-.37-.09zm65.24 5.33q-4.47 10.09-1.04 21.04 2.5 8.02 9.17 11.87 5.73 3.31 13.76 3.03 14-.48 19.5-13.26 2.37-5.52 2.42-11.67.04-6.43-2.35-11.97-3.52-8.13-11.17-10.82-6.94-2.44-14.51-1-5.37 1.03-9.64 4.51-3.88 3.15-6.14 8.27zm80.23 28.57l.04 5.67a.8.75.8 00.78.75l5.53.18a.91.82 1 00.94-.82V118.5q0-8.04-5.7-11.98-4.56-3.15-11.65-2.83-7.2.32-14.29 3.92a1.13 1.11 76.7 00-.61 1v5.91q0 1.05.84.43 5.61-4.19 12.17-4.83 11.34-1.1 11.77 11.08a.76.75-5.5 01-.65.78q-6 .9-11.9 1.56-4.68.52-8.91 2.53-7.47 3.56-7.82 11.93-.26 6.41 3.1 10.2 3.01 3.39 8.74 4.36 9.9 1.67 17.02-7.41.59-.75.6.19zm157.66-33.96q-3.2 3.85-4.43 9.06-1.44 6.06-.79 11.95.72 6.47 3.82 11.07 2.78 4.13 7.2 6.58 3.92 2.18 9.1 2.72 5.32.56 9.67-.82 12.62-4.01 15.19-16.43 1.06-5.15.74-10.54-.33-5.59-2.68-10.41-4.07-8.32-13.61-10.43-4.89-1.08-10.83-.13-8.35 1.33-13.38 7.38zm58.93-.35l-.05-5.59a.68.66 90 00-.66-.68l-6.15.04a.72.69-90 00-.69.72v45.6a.85.79-.7 00.87.79l5.72-.15a.94.89-1 00.92-.9q-.17-14.36.18-27.99.07-2.77.78-4.64.92-2.41 2.34-4.17 3.78-4.66 9.27-4.05 3.72.41 6.17 2.8 2.6 2.55 3.02 6.61.26 2.4.25 4.83-.02 13.38-.02 26.82a.67.66 90 00.66.67l6.28-.04a.52.5 90 00.5-.52q.05-12.48.11-24.97.01-3.95.67-6.21.96-3.29 2.84-5.69 5.52-7.01 14-2.87 2.68 1.31 3.45 4.73.66 2.97.69 3.11.23 1.27.3 3.22.46 13.5-.04 28.27a.91.89-88.7 00.88.94l6.11.04a.56.55-90 00.55-.56q.04-15.77-.05-30.93-.01-1.84-.31-3.37-.33-1.67-.76-3.31-1.05-4.02-3.9-6.51-2.42-2.13-6.56-3.03-11.85-2.56-18.94 8.4-.35.54-.62-.05-4.96-10.76-17.06-8.18-6.51 1.39-10.12 6.99-.62.97-.63-.17zm-85.06 2.17l-.17-7.52a.9.77 88.9 00-.78-.88l-6.1.08a.57.51-89.9 00-.5.56l-.21 45.5a.8.79-89.6 00.79.81h5.89a.86.86 89.7 00.86-.87q-.2-13.63.23-26.13.21-6.07 4.22-10.5 2.52-2.77 5.34-3.31 3.05-.57 6.62.84a.6.55 9.9 00.82-.53l-.46-6.38a.81.75 2 00-.71-.7q-7.75-.99-12.02 3.64-1.65 1.8-3.52 5.44-.29.55-.3-.05zm-310.55 29.76l-10.18-37.47a.93.87 81.5 00-.87-.69l-5.7.08a.76.67-81.1 00-.65.54l-11.41 37.66q-.23.77-.44 0l-10.12-37.54a.79.79-2.3 00-.62-.57q-3.35-.56-6.7-.05a.44.43-12.1 00-.36.55l13.68 45.74a.75.73 81.4 00.7.53l6.42-.04a.68.67-81.1 00.64-.48l11.33-35.93q.15-.48.28 0l10.08 35.52a1.1.98 83.1 00.9.79l6.2.38a1.04.95-79.7 00.98-.75l13.81-45.99a.38.38 8 00-.37-.49h-6.25a.87.85-81.8 00-.82.63l-10.27 37.57q-.13.49-.26.01zm33.25 83.74q-.01 1.33-.79.25-3.94-5.42-9.91-6.34-4.07-.63-8.48.24-4.39.86-7.82 3.84-5.89 5.11-7.59 12.49-1.07 4.63-1.01 10.03.05 5.23 1.91 10.04 5.04 13.05 19.49 12.14 8.81-.55 13.57-7.85.57-.86.81.18.07.29.03.68-.27 2.56-.14 5.33a.55.54 88.3 00.54.52h6.7a.5.5 0 00.5-.5v-68.09a.66.66 90 00-.66-.66h-6.46a.45.44-89.3 00-.44.44l-.25 27.26zm-96.33-22.09a4.87 4.87 0 00-4.87-4.87 4.87 4.87 0 00-4.87 4.87 4.87 4.87 0 004.87 4.87 4.87 4.87 0 004.87-4.87zm296.53 61.9q11.85 5.17 23.36 1.74 9.44-2.81 11.63-11.78 1.13-4.66-.04-8.92-1.28-4.7-5.03-7.86-5.77-4.88-15.25-10-2.77-1.5-4.98-4.07-2.25-2.62-2.64-5.65-.59-4.68 2.54-7.86 2.45-2.49 6.81-3.32 8.2-1.55 15.72 3.28.47.29.46-.24l-.11-7.64a.79.72 10.8 00-.51-.68q-5.39-2-13.35-1.76-10.24.31-15.79 6.99-2.85 3.43-3.57 7.7-.75 4.52.9 8.77 1.25 3.24 4.47 6.29 2.95 2.78 6.24 4.75 6.43 3.84 10.04 6.18 3.6 2.34 4.65 4.38 4.1 7.99-.67 12.54-3.51 3.35-9.98 3.23-8.36-.16-15.4-5.29-.45-.33-.43.21l.4 8.32a.89.74 12.7 00.53.69zm-355.63-51.2q.63 3.87 2.99 12.44 5.47 19.88 11.17 39.7a.78.66 81.2 00.63.55l8.2.28a.68.63-81.2 00.63-.5l18.12-64.04a.98.94-82.7 00-.92-1.25l-6.78.27a.73.65-82.6 00-.62.54l-14.36 54.65q-.13.47-.26 0l-14.98-54.66a.74.66 81.7 00-.64-.54l-5.73-.11a1.54 1.33-80.2 00-1.35 1.11l-15.86 54.75q-.38 1.31-.44-.06-.13-3.41-1.05-6.69-6.53-23.37-13.32-47.85a1.43 1.3 81.4 00-1.3-1.06l-6.64.09a.43.4 80.6 00-.36.55l18.53 64.24a.67.67-8.1 00.64.48l8.07.05a.71.68-81.5 00.66-.51l14.76-52.44q.13-.47.21.01zm402.43 13.25q.11 14.72.23 29.44.07 9.26 8.39 11.19 4.4 1.02 9.66-.83a.9.88-4.3 00.58-.66q.52-2.6.05-5.22a.37.36-19.5 00-.53-.24q-3.38 1.77-7.01.46-2.54-.92-3.27-3.2-.07-.22-.73-3.47-.35-1.74-.35-3.53.04-12 .04-23.65a.87.86-.3 01.86-.86l10.59-.04a.53.5-1.1 00.52-.51l-.1-5.5a.56.51-.5 00-.56-.5l-10.6-.18a.73.73.8 01-.71-.73v-11.87q0-.51-.17-.78-.39-.63-1.01-.01-.35.35-.81.49l-4.36 1.39a.77.69 83.2 00-.48.69l-.34 10.37a.53.49.5 01-.52.47l-6.82.16a.59.56-1.1 00-.57.56l-.06 5.32a.6.53 1.1 00.58.53l7 .21a.52.5 1.2 01.5.5zm-323.73-.36q-.54-2.72-.21-4.45.55-2.87-1.42-2.57-1.75.26-2.19.25-1.69-.04-3.34.28a.61.61-5.8 00-.49.6v45.39a.5.5 0 00.5.5l6.42.05a.53.52 90 00.52-.53v-22.26q0-7.26 1.23-10.26 2.19-5.36 7.87-7.65 2.58-1.05 4.93-.93 2.82.14 4.91 1.69 4.85 3.59 4.92 10.44.14 14.38.14 28.98a.52.52 0 00.52.52h6.73a.5.5 0 00.5-.5q0-12.37-.13-24.75-.09-8.87-.87-11.25-4.54-13.9-19-11-6.64 1.33-11.15 7.53-.29.41-.39-.08zm103.31 36.26q5.61 4.8 12.73 5.04 18.93.65 23.96-15.79 1.17-3.82 1.26-8.16.1-4.32-.72-8.3-1.27-6.19-5.38-10.54-3.86-4.09-9.83-5.62-6.72-1.72-13.54.16-13.53 3.73-15.92 18.01-.46 2.77-.52 7.18-.15 11.09 7.96 18.02zm113.28 2.68q5.95 2.58 11.98 2.39 6.89-.21 11.26-3.47 4.79-3.56 4.79-10.11.01-3.97-2.03-6.98-2.21-3.25-5.86-4.91-4.85-2.19-8.25-4.08-2.59-1.45-3.62-2.82-1.65-2.2-1.03-4.78.72-3.04 3.78-4.64 3.38-1.78 7.68-.74 3.87.93 6.57 2.5a.34.3 16.2 00.5-.24l.06-6.34a.86.67 13.9 00-.53-.68q-6.52-2.71-13.59-1.44-6.96 1.24-10.25 6.69-1.92 3.19-1.96 6.82-.04 3.95 2.16 7.09 1.66 2.35 5.9 4.73 3.33 1.87 6.81 3.46 4.21 1.92 5.08 3.66 1.94 3.89.07 6.78-1.48 2.26-5.09 2.93-7.63 1.42-14.06-3.66-.92-.73-.92.45v6.55a.92.89-78.9 00.55.84zm139.3-2.23q4.51 3.72 10.65 4.34 18.25 1.83 24.77-12.87 1.89-4.26 2.27-9.63.42-5.74-.79-10-4.94-17.46-23.51-16.48-7.96.42-13.43 5.04-7.31 6.18-7.85 16.45-.14 2.67-.19 5.33-.05 3.19.4 5.29 1.61 7.51 7.68 12.53zm55.64-35.2q-.47-2.97-.19-7.25a1.14 1.11-88.3 00-1.11-1.21l-5.39.05a.64.62 89.5 00-.61.64l-.19 45.56a.56.5-89.5 00.49.56l6.45.16a.5.46 89.3 00.47-.53q-.65-14.18.5-28.32.09-1.12.49-2.18.39-1.04.8-2.08.72-1.84 1.51-2.96 4.76-6.72 13.07-3.58a.4.35 11.4 00.54-.31l.06-6.34a.82.67 12.3 00-.53-.67q-4.9-1.85-9.46.86-4.48 2.67-6.15 7.66-.5 1.52-.75-.06zm29.32 17.34l31.68-.3a.82.81-.4 00.81-.81q.07-7.75-1.74-14-1.31-4.55-5.29-7.59-3.44-2.62-8.13-3.58-5.93-1.21-11.42.92-5.19 2.01-8.82 6.58-4.07 5.11-5.11 11.99-1.42 9.36 1.77 17.18 4.75 11.63 17.93 12.21 8.95.38 17.07-4.17a.87.86-15 00.44-.75v-6q0-.88-.69-.33-4.63 3.71-10.31 4.61-5.87.94-10.74-1.38-7.86-3.74-7.95-14.07a.51.51-.6 01.5-.51zm-461.57-25.3a.28.28 0 00-.28-.28h-6.94a.28.28 0 00-.28.28v46.22a.28.28 0 00.28.28h6.94a.28.28 0 00.28-.28v-46.22zm213.95 38.46l-10.36-38.16a.87.85 88.2 00-.64-.61q-2.9-.63-5.77.11a.92.91-88.7 00-.63.61l-11.58 37.54q-.15.48-.28.01l-10.32-37.97a.66.66-7.4 00-.64-.49h-6.21a.84.84-8.4 00-.81 1.08l13.72 45.38a.7.64 80.6 00.64.51l6.5-.11a.77.69-80.4 00.66-.53q5.63-17.38 10.95-34.85.17-.58.42-.66a.65.33 82.9 01.44.66q.11 1.28.48 2.52 4.84 15.96 9.29 32.49a.68.67 82 00.65.5l6.99-.04a.67.67 8.1 00.64-.48l13.54-45.04a1.15 1.12 7.5 00-1.14-1.44l-4.39.1a1.98 1.83 6.4 00-1.84 1.36l-10.06 37.51q-.12.46-.25 0z"/><path fill="#fff" d="M169.56 54.69q4.85 3.7 6.67 9.57 1.44 4.64 1.65 9.5.58 13.2.32 26.43a.92.85 76.9 01-.43.76q-1.26.73-2.77.61a1.47 1.42 29.8 00-.91.23q-1.85 1.24-1.69-1.18.1-1.54.1-1.72 0-9.82-.02-19.64-.01-5.2-1.31-10.23Q168.69 59.45 159 58q-4.57-.68-9.55.26-7.97 1.51-15.31 4.97-12.02 5.67-12.24 19.21-.24 14.62-.21 29.25a.65.62 83.9 01-.48.63l-4.56.99a.55.53 83.6 01-.64-.54q-.18-17.27.24-33.77.26-10.15 6.88-16.69 4.91-4.86 14.98-7.92 8.46-2.58 17.38-3.25 8.58-.65 14.07 3.55zm30 15.25q2.76 1.52 3.94 5.81 1.94 7.06 1.52 19a.74.58 87.5 01-.49.69l-4.73.88a.59.51 87.6 01-.6-.63q.48-8.37-.88-15.66-.93-4.97-5.92-5.76-3.42-.55-7.9-.19a.73.62 83.7 01-.68-.64l-.58-4.24a.61.55 79 01.39-.64q8.94-2.49 15.93 1.38z"/><path fill="#fff" d="M156 77.15q3.79-2.97 9.2-4.49a.51.5 78.5 01.63.43l.54 3.96a1.93 1.8 76.2 01-1.13 2.02q-6.5 2.46-9.11 7.85-1.37 2.84-1.55 8.9-.13 4.56-.14 9.12a.72.58 85.1 01-.46.68l-4.72.99a.47.42 84.6 01-.51-.47q0-5.14-.14-9.89-.17-5.77 1.73-11 1.85-5.13 5.66-8.1zm614.47 33.73q-3.02.46-6.42-.11a.6.58 4.6 01-.51-.58l-.02-4.6a.86.84 0 01.86-.84h6.22a.95.95 88.3 00.95-1.01q-.43-6.61 1.12-12.24 2.22-8.05 10.77-10.06 4.31-1.02 7.79.42a.81.73-81.2 01.46.7l.23 5.6a.22.22-81.2 01-.29.22q-9.61-3.32-12.13 5.37-.79 2.73-.56 7.34.01.05-.06 1.82-.07 2.12 2.14 1.95 1.37-.11 1.47-.11h6.99a.52.52-90 01.52.52v5.08a.66.65 0 01-.66.65l-9.64.05a.72.71 89.6 00-.7.72v39.46a.52.52-90 01-.52.52h-6.11a.87.87 0 01-.87-.87v-39.11a.9.9-4.1 00-1.03-.89z"/><rect fill="#fff" x="572.49" y="82.07" width="7.26" height="69.68" rx=".41"/><path fill="#fff" d="M725.23 110.06q.83 1.19.84-.27l.1-26.85a.56.52-89.4 01.52-.55l6.31-.11a.53.5 90 01.5.53v68.5a.65.59.5 01-.66.59l-5.75-.12a1.15 1.12.8 01-1.12-1.12l-.01-5.85q0-.52-.32-.1-7.38 9.83-19.08 7.98-7.58-1.2-11.73-7.08-3.31-4.68-4.26-12.14-1.12-8.75 2.21-16.76 3.04-7.31 8.67-10.54 6.35-3.64 14.52-2.04 5.89 1.16 9.26 5.93zm-23.29 5.38q-3.16 4.16-3.61 8.79-.5 5.11.17 9.52 1.25 8.24 7.55 11.21 5.93 2.79 11.9-.05 6.3-3.01 7.8-11.16.55-2.99.22-10.01-.21-4.48-1.77-7.16-3.69-6.35-11.34-6.5-3.49-.07-6.05 1.2-2.77 1.38-4.87 4.16zm-320.13 24.12q-6.45 7.83-16.06 10.44-6.1 1.66-13 1.7-7.88.05-15.94.05a.56.56 0 01-.56-.56V86.5a.5.5 0 01.5-.5q9.88 0 19.75-.05 7.9-.04 15.25 2.8 10.78 4.17 14.69 14.31 2.52 6.54 2.51 15.19-.02 12.68-7.14 21.31zm-6.25-4q4.55-6.07 5.21-13.56.66-7.62-1.27-14.04-2.89-9.61-13.58-13.36-4.26-1.49-8.74-1.62-4.2-.12-4.36-.13-3.99-.22-8.24-.09a.86.86-1 00-.83.86l.06 50.08a.68.68 8.7 00.48.65q1.57.48 3.17.4 3.45-.16 3.61-.15 7.9.32 13.18-1.35 7.28-2.3 11.31-7.69z"/><path fill="#030303" d="M375.56 135.56q-4.03 5.39-11.31 7.69-5.28 1.67-13.18 1.35-.16-.01-3.61.15-1.6.08-3.17-.4a.68.68 8.7 01-.48-.65l-.06-50.08a.86.86-1 01.83-.86q4.25-.13 8.24.09.16.01 4.36.13 4.48.13 8.74 1.62 10.69 3.75 13.58 13.36 1.93 6.42 1.27 14.04-.66 7.49-5.21 13.56z"/><path fill="#fff" d="M255.81 104.45q5.39 1.91 11.21 4.26a.77.76-79.3 01.48.71v159.19a1.29 1.26 80.4 01-.84 1.21l-30.67 11.2a4.88 4.69 39.7 01-2.56.19L71.89 248.78a.81.8-84.3 01-.64-.79V130.55a1.1 1.1 84.2 01.88-1.08q79.15-15.94 158.43-31.91 2.1-.42 3.8-.44 1.51-.01 3.66.8 8.86 3.35 17.79 6.53zm-110.02 67.44q-.14 6.23-.03 12.81a.56.56 89.5 00.56.55h46.12a.56.56 0 00.56-.56v-39.4a.81.81 86 00-.92-.8Q172 147.38 152 150.25q-4.12.59-5.73 1.14a.73.68 82.2 00-.47.67q-.12 4.96-.02 9.92.11 5.27.01 9.91zm-2.97-19.99a.31.31 86 00-.35-.31l-35.06 4.78a.77.76 86.1 00-.66.76v27.56a.56.55 90 00.55.56l35.14-.06a.5.49-90 00.49-.5l-.11-32.79zm-35.23 67.15l33.97 4.78a1.1 1.1 4.3 001.26-1.08l.18-33.58a.91.91-89.7 00-.91-.92h-34.78a.56.56 0 00-.56.56v29.27a.98.98-85.9 00.84.97zm84.48-30.62l-45.55-.17a.77.76-89.6 00-.77.77l.06 34.29a1.09 1.08 4.3 00.93 1.07l44.92 6.45a1.17 1.17-85.8 001.34-1.16v-40.3a.95.94-89.7 00-.93-.95zm209.62-76.74q4.94-6.4 13.31-7.67 21.4-3.24 27 16.98.88 3.18.18 10.74-1.42 15.23-14.99 19.95-6.28 2.18-12.94.71-6.07-1.34-10.41-5.11-4.77-4.13-6.36-10.28-1.61-6.21-.86-12.95.75-6.78 5.07-12.37zm5.87 4.15q-2.6 3.44-3.06 8.66-.36 4.05-.07 7.37.35 3.96 2.05 6.99 2.84 5.06 8.25 6.78 5.06 1.62 10.05.04 7.01-2.21 9.16-10.24 1.96-7.34-.06-14.41-1.53-5.32-4.83-8.05-3.87-3.19-9.55-3.12-7.52.1-11.94 5.98zm120.55-4.31q3.47-4.67 8.54-6.7 4.94-1.98 10.34-.78 7.91 1.75 10.66 9.09 1.32 3.53 1.49 12.89.22 12.14.1 24.8a.93.92-89.7 01-.92.92h-5.93a.9.89.3 01-.9-.9q.13-13.4-.09-26.19-.1-6.17-1.59-9.18-2.96-5.98-9.62-5.39-5.62.5-9.12 4.64-3.58 4.23-3.58 10.52.01 13 .01 26.1a.51.49.6 01-.52.49l-6.19-.09a.8.78.4 01-.79-.78l.06-45.18a.93.84-89.4 01.85-.92l6.03.1a.62.47 88.2 01.48.59l.32 5.88q.03.54.37.09zm71.01-3.03q4.27-3.48 9.64-4.51 7.57-1.44 14.51 1 7.65 2.69 11.17 10.82 2.39 5.54 2.35 11.97-.05 6.15-2.42 11.67-5.5 12.78-19.5 13.26-8.03.28-13.76-3.03-6.67-3.85-9.17-11.87-3.43-10.95 1.04-21.04 2.26-5.12 6.14-8.27zm3.56 6.43q-3.49 4.12-4.16 9.18-.61 4.61.29 9.77 1.24 7.03 7.16 10.32 5.35 2.98 11.42 1.85 8.88-1.66 11.01-12.12 1.48-7.28-.46-13.62-3.18-10.35-14.44-10.34-6.63.01-10.82 4.96zm70.53 30.41q-.01-.94-.6-.19-7.12 9.08-17.02 7.41-5.73-.97-8.74-4.36-3.36-3.79-3.1-10.2.35-8.37 7.82-11.93 4.23-2.01 8.91-2.53 5.9-.66 11.9-1.56a.76.75-5.5 00.65-.78q-.43-12.18-11.77-11.08-6.56.64-12.17 4.83-.84.62-.84-.43v-5.91a1.13 1.11 76.7 01.61-1q7.09-3.6 14.29-3.92 7.09-.32 11.65 2.83 5.7 3.94 5.7 11.98v32.62a.91.82 1 01-.94.82l-5.53-.18a.8.75.8 01-.78-.75l-.04-5.67zm-21.45-9.06q-1.38 6.29 3.56 8.86 3.71 1.93 8.16.74 5.45-1.45 8.09-6.68 1.01-2.01 1.34-4.95.3-2.7.28-5.18a.94.93 86.2 00-1.05-.92q-7.21.84-13.46 1.98-2.64.49-4.57 2.05-1.78 1.46-2.35 4.1zm179.11-24.9q5.03-6.05 13.38-7.38 5.94-.95 10.83.13 9.54 2.11 13.61 10.43 2.35 4.82 2.68 10.41.32 5.39-.74 10.54-2.57 12.42-15.19 16.43-4.35 1.38-9.67.82-5.18-.54-9.1-2.72-4.42-2.45-7.2-6.58-3.1-4.6-3.82-11.07-.65-5.89.79-11.95 1.23-5.21 4.43-9.06zm6.49 3.48q-2.79 3.16-3.61 7.64-.78 4.28-.5 8.34.31 4.44 2.22 7.89 4.02 7.25 12.34 7.6 5.38.23 9.41-2.45 4.59-3.04 5.83-8.65.67-3.06.7-7.98.02-4.51-1.25-8-3.43-9.42-14.25-9.31-6.61.07-10.89 4.92zm52.44-3.83q.01 1.14.63.17 3.61-5.6 10.12-6.99 12.1-2.58 17.06 8.18.27.59.62.05 7.09-10.96 18.94-8.4 4.14.9 6.56 3.03 2.85 2.49 3.9 6.51.43 1.64.76 3.31.3 1.53.31 3.37.09 15.16.05 30.93a.56.55-90 01-.55.56l-6.11-.04a.91.89-88.7 01-.88-.94q.5-14.77.04-28.27-.07-1.95-.3-3.22-.03-.14-.69-3.11-.77-3.42-3.45-4.73-8.48-4.14-14 2.87-1.88 2.4-2.84 5.69-.66 2.26-.67 6.21-.06 12.49-.11 24.97a.52.5-90 01-.5.52l-6.28.04a.67.66 90 01-.66-.67q0-13.44.02-26.82.01-2.43-.25-4.83-.42-4.06-3.02-6.61-2.45-2.39-6.17-2.8-5.49-.61-9.27 4.05-1.42 1.76-2.34 4.17-.71 1.87-.78 4.64-.35 13.63-.18 27.99a.94.89-1 01-.92.9l-5.72.15a.85.79-.7 01-.87-.79v-45.6a.72.69-90 01.69-.72l6.15-.04a.68.66 90 01.66.68l.05 5.59zm-84.76 2.22q1.87-3.64 3.52-5.44 4.27-4.63 12.02-3.64a.81.75 2 01.71.7l.46 6.38a.6.55 9.9 01-.82.53q-3.57-1.41-6.62-.84-2.82.54-5.34 3.31-4.01 4.43-4.22 10.5-.43 12.5-.23 26.13a.86.86 89.7 01-.86.87h-5.89a.8.79-89.6 01-.79-.81l.21-45.5a.57.51-89.9 01.5-.56l6.1-.08a.9.77 88.9 01.78.88l.17 7.52q.01.6.3.05zm-310.59 29.7l10.27-37.57a.87.85-81.8 01.82-.63h6.25a.38.38 8 01.37.49l-13.81 45.99a1.04.95-79.7 01-.98.75l-6.2-.38a1.1.98 83.1 01-.9-.79l-10.08-35.52q-.13-.48-.28 0l-11.33 35.93a.68.67-81.1 01-.64.48l-6.42.04a.75.73 81.4 01-.7-.53l-13.68-45.74a.44.43-12.1 01.36-.55q3.35-.51 6.7.05a.79.79-2.3 01.62.57l10.12 37.54q.21.77.44 0l11.41-37.66a.76.67-81.1 01.65-.54l5.7-.08a.93.87 81.5 01.87.69l10.18 37.47q.13.48.26-.01z"/><path fill="#030303" d="M407.56 115.84q4.42-5.88 11.94-5.98 5.68-.07 9.55 3.12 3.3 2.73 4.83 8.05 2.02 7.07.06 14.41-2.15 8.03-9.16 10.24-4.99 1.58-10.05-.04-5.41-1.72-8.25-6.78-1.7-3.03-2.05-6.99-.29-3.32.07-7.37.46-5.22 3.06-8.66zm195.12-.91q4.19-4.95 10.82-4.96 11.26-.01 14.44 10.34 1.94 6.34.46 13.62-2.13 10.46-11.01 12.12-6.07 1.13-11.42-1.85-5.92-3.29-7.16-10.32-.9-5.16-.29-9.77.67-5.06 4.16-9.18zm99.26.51q2.1-2.78 4.87-4.16 2.56-1.27 6.05-1.2 7.65.15 11.34 6.5 1.56 2.68 1.77 7.16.33 7.02-.22 10.01-1.5 8.15-7.8 11.16-5.97 2.84-11.9.05-6.3-2.97-7.55-11.21-.67-4.41-.17-9.52.45-4.63 3.61-8.79zm135.42-.58q4.28-4.85 10.89-4.92 10.82-.11 14.25 9.31 1.27 3.49 1.25 8-.03 4.92-.7 7.98-1.24 5.61-5.83 8.65-4.03 2.68-9.41 2.45-8.32-.35-12.34-7.6-1.91-3.45-2.22-7.89-.28-4.06.5-8.34.82-4.48 3.61-7.64zm-183.25 17.32q1.93-1.56 4.57-2.05 6.25-1.14 13.46-1.98a.94.93 86.2 011.05.92q.02 2.48-.28 5.18-.33 2.94-1.34 4.95-2.64 5.23-8.09 6.68-4.45 1.19-8.16-.74-4.94-2.57-3.56-8.86.57-2.64 2.35-4.1zm-508.33 29.8q-.1-4.96.02-9.92a.73.68 82.2 01.47-.67q1.61-.55 5.73-1.14 20-2.87 40.08-5.76a.81.81 86 01.92.8v39.4a.56.56 0 01-.56.56h-46.12a.56.56 89.5 01-.56-.55q-.11-6.58.03-12.81.1-4.64-.01-9.91zm-2.96-10.08l.11 32.79a.5.49-90 01-.49.5l-35.14.06a.56.55 90 01-.55-.56v-27.56a.77.76 86.1 01.66-.76l35.06-4.78a.31.31 86 01.35.31zm-35.23 67.15a.98.98-85.9 01-.84-.97v-29.27a.56.56 0 01.56-.56h34.78a.91.91-89.7 01.91.92l-.18 33.58a1.1 1.1 4.3 01-1.26 1.08l-33.97-4.78zm84.48-30.62a.95.94-89.7 01.93.95v40.3a1.17 1.17-85.8 01-1.34 1.16l-44.92-6.45a1.09 1.08 4.3 01-.93-1.07l-.06-34.29a.77.76-89.6 01.77-.77l45.55.17z"/><path fill="#fff" d="M527.44 226.7l.25-27.26a.45.44-89.3 01.44-.44h6.46a.66.66 89.5 01.66.66v68.09a.5.5 0 01-.5.5h-6.7a.55.54 88.3 01-.54-.52q-.13-2.77.14-5.33.04-.39-.03-.68-.24-1.04-.81-.18-4.76 7.3-13.57 7.85-14.45.91-19.49-12.14-1.86-4.81-1.91-10.04-.06-5.4 1.01-10.03 1.7-7.38 7.59-12.49 3.43-2.98 7.82-3.84 4.41-.87 8.48-.24 5.97.92 9.91 6.34.78 1.08.79-.25zm-21.73 33.83q4.5 3.25 9.42 2.61 4.54-.59 8.08-4.17 4.76-4.82 4.45-12.48-.11-2.75-.14-5.5-.05-3.5-.71-5.4-1.84-5.26-6.87-7.53-6.65-3-12.13.25-5.7 3.39-7.41 9.92-.99 3.81-.92 8.1.08 4.13 1.57 8.11 1.42 3.76 4.66 6.09z"/><circle fill="#fff" cx="426.24" cy="204.61" r="4.87"/><path fill="#fff" d="M727.11 265.82l-.4-8.32q-.02-.54.43-.21 7.04 5.13 15.4 5.29 6.47.12 9.98-3.23 4.77-4.55.67-12.54-1.05-2.04-4.65-4.38-3.61-2.34-10.04-6.18-3.29-1.97-6.24-4.75-3.22-3.05-4.47-6.29-1.65-4.25-.9-8.77.72-4.27 3.57-7.7 5.55-6.68 15.79-6.99 7.96-.24 13.35 1.76a.79.72 10.8 01.51.68l.11 7.64q.01.53-.46.24-7.52-4.83-15.72-3.28-4.36.83-6.81 3.32-3.13 3.18-2.54 7.86.39 3.03 2.64 5.65 2.21 2.57 4.98 4.07 9.48 5.12 15.25 10 3.75 3.16 5.03 7.86 1.17 4.26.04 8.92-2.19 8.97-11.63 11.78-11.51 3.43-23.36-1.74a.89.74 12.7 01-.53-.69zM371.8 215.3l-14.76 52.44a.71.68-81.5 01-.66.51l-8.07-.05a.67.67-8.1 01-.64-.48l-18.53-64.24a.43.4 80.6 01.36-.55l6.64-.09a1.43 1.3 81.4 011.3 1.06q6.79 24.48 13.32 47.85.92 3.28 1.05 6.69.06 1.37.44.06l15.86-54.75a1.54 1.33-80.2 011.35-1.11l5.73.11a.74.66 81.7 01.64.54l14.98 54.66q.13.47.26 0l14.36-54.65a.73.65-82.6 01.62-.54l6.78-.27a.98.94-82.7 01.92 1.25l-18.12 64.04a.68.63-81.2 01-.63.5l-8.2-.28a.78.66 81.2 01-.63-.55q-5.7-19.82-11.17-39.7-2.36-8.57-2.99-12.44-.08-.48-.21-.01zm402.14 12.76l-7-.21a.6.53 1.1 01-.58-.53l.06-5.32a.59.56-1.1 01.57-.56l6.82-.16a.53.49.5 00.52-.47l.34-10.37a.77.69 83.2 01.48-.69l4.36-1.39q.46-.14.81-.49.62-.62 1.01.01.17.27.17.78v11.87a.73.73.8 00.71.73l10.6.18a.56.51-.5 01.56.5l.1 5.5a.53.5-1.1 01-.52.51l-10.59.04a.87.86-.3 00-.86.86q0 11.65-.04 23.65 0 1.79.35 3.53.66 3.25.73 3.47.73 2.28 3.27 3.2 3.63 1.31 7.01-.46a.37.36-19.5 01.53.24q.47 2.62-.05 5.22a.9.88-4.3 01-.58.66q-5.26 1.85-9.66.83-8.32-1.93-8.39-11.19-.12-14.72-.23-29.44a.52.5 1.2 00-.5-.5zm-322.84.22q4.51-6.2 11.15-7.53 14.46-2.9 19 11 .78 2.38.87 11.25.13 12.38.13 24.75a.5.5 0 01-.5.5h-6.73a.52.52 0 01-.52-.52q0-14.6-.14-28.98-.07-6.85-4.92-10.44-2.09-1.55-4.91-1.69-2.35-.12-4.93.93-5.68 2.29-7.87 7.65-1.23 3-1.23 10.26v22.26a.53.52 90 01-.52.53l-6.42-.05a.5.5 0 01-.5-.5v-45.39a.61.61-5.8 01.49-.6q1.65-.32 3.34-.28.44.01 2.19-.25 1.97-.3 1.42 2.57-.33 1.73.21 4.45.1.49.39.08zm102.92 36.18q-8.11-6.93-7.96-18.02.06-4.41.52-7.18 2.39-14.28 15.92-18.01 6.82-1.88 13.54-.16 5.97 1.53 9.83 5.62 4.11 4.35 5.38 10.54.82 3.98.72 8.3-.09 4.34-1.26 8.16-5.03 16.44-23.96 15.79-7.12-.24-12.73-5.04zm8.68-2.66q3.81 1.73 8.55 1.2 8.64-.97 11.41-8.78 2.56-7.24 1.19-14.39-1.26-6.51-5.23-10.01-4.83-4.27-12.12-2.82-9.52 1.9-11.81 10.54-1.23 4.62-1.08 9.46.16 5.1 2.94 9.33 2.51 3.82 6.15 5.47zm104.6 5.34a.92.89-78.9 01-.55-.84v-6.55q0-1.18.92-.45 6.43 5.08 14.06 3.66 3.61-.67 5.09-2.93 1.87-2.89-.07-6.78-.87-1.74-5.08-3.66-3.48-1.59-6.81-3.46-4.24-2.38-5.9-4.73-2.2-3.14-2.16-7.09.04-3.63 1.96-6.82 3.29-5.45 10.25-6.69 7.07-1.27 13.59 1.44a.86.67 13.9 01.53.68l-.06 6.34a.34.3 16.2 01-.5.24q-2.7-1.57-6.57-2.5-4.3-1.04-7.68.74-3.06 1.6-3.78 4.64-.62 2.58 1.03 4.78 1.03 1.37 3.62 2.82 3.4 1.89 8.25 4.08 3.65 1.66 5.86 4.91 2.04 3.01 2.03 6.98 0 6.55-4.79 10.11-4.37 3.26-11.26 3.47-6.03.19-11.98-2.39zm139.3-2.23q-6.07-5.02-7.68-12.53-.45-2.1-.4-5.29.05-2.66.19-5.33.54-10.27 7.85-16.45 5.47-4.62 13.43-5.04 18.57-.98 23.51 16.48 1.21 4.26.79 10-.38 5.37-2.27 9.63-6.52 14.7-24.77 12.87-6.14-.62-10.65-4.34zm5.63-4.91q5.28 4.12 12.02 2.97 8.98-1.53 11.35-10.31 2.11-7.82.34-14.6-2.23-8.53-9.49-10.64-6.64-1.93-12.61 1.39-6.37 3.55-7.46 12.21-.52 4.11-.08 8.22.71 6.69 5.93 10.76zm50.01-30.29q.25 1.58.75.06 1.67-4.99 6.15-7.66 4.56-2.71 9.46-.86a.82.67 12.3 01.53.67l-.06 6.34a.4.35 11.4 01-.54.31q-8.31-3.14-13.07 3.58-.79 1.12-1.51 2.96-.41 1.04-.8 2.08-.4 1.06-.49 2.18-1.15 14.14-.5 28.32a.5.46 89.3 01-.47.53l-6.45-.16a.56.5-89.5 01-.49-.56l.19-45.56a.64.62 89.5 01.61-.64l5.39-.05a1.14 1.11-88.3 011.11 1.21q-.28 4.28.19 7.25zm28.82 17.85q.09 10.33 7.95 14.07 4.87 2.32 10.74 1.38 5.68-.9 10.31-4.61.69-.55.69.33v6a.87.86-15 01-.44.75q-8.12 4.55-17.07 4.17-13.18-.58-17.93-12.21-3.19-7.82-1.77-17.18 1.04-6.88 5.11-11.99 3.63-4.57 8.82-6.58 5.49-2.13 11.42-.92 4.69.96 8.13 3.58 3.98 3.04 5.29 7.59 1.81 6.25 1.74 14a.82.81-.4 01-.81.81l-31.68.3a.51.51-.6 00-.5.51zm3.16-15.1q-2.1 2.93-2.94 7.28a.43.43-84.9 00.42.51l23.99-.06a.51.51-89.4 00.51-.5q.12-6.06-3.6-9.64-3.76-3.62-9.13-3.18-5.55.45-9.25 5.59z"/><rect fill="#fff" x="422.49" y="221.47" width="7.5" height="46.78" rx=".28"/><path fill="#fff" d="M644.19 260.21l10.06-37.51a1.98 1.83 6.4 011.84-1.36l4.39-.1a1.15 1.12 7.5 011.14 1.44l-13.54 45.04a.67.67 8.1 01-.64.48l-6.99.04a.68.67 82 01-.65-.5q-4.45-16.53-9.29-32.49-.37-1.24-.48-2.52a.65.33 82.9 00-.44-.66q-.25.08-.42.66-5.32 17.47-10.95 34.85a.77.69-80.4 01-.66.53l-6.5.11a.7.64 80.6 01-.64-.51l-13.72-45.38a.84.84-8.4 01.81-1.08h6.21a.66.66-7.4 01.64.49l10.32 37.97q.13.47.28-.01l11.58-37.54a.92.91-88.7 01.63-.61q2.87-.74 5.77-.11a.87.85 88.2 01.64.61l10.36 38.16q.13.46.25 0z"/><path fill="#030303" d="M505.71 260.53q-3.24-2.33-4.66-6.09-1.49-3.98-1.57-8.11-.07-4.29.92-8.1 1.71-6.53 7.41-9.92 5.48-3.25 12.13-.25 5.03 2.27 6.87 7.53.66 1.9.71 5.4.03 2.75.14 5.5.31 7.66-4.45 12.48-3.54 3.58-8.08 4.17-4.92.64-9.42-2.61zm50.84-4.2q-2.78-4.23-2.94-9.33-.15-4.84 1.08-9.46 2.29-8.64 11.81-10.54 7.29-1.45 12.12 2.82 3.97 3.5 5.23 10.01 1.37 7.15-1.19 14.39-2.77 7.81-11.41 8.78-4.74.53-8.55-1.2-3.64-1.65-6.15-5.47zM812.23 260q-5.22-4.07-5.93-10.76-.44-4.11.08-8.22 1.09-8.66 7.46-12.21 5.97-3.32 12.61-1.39 7.26 2.11 9.49 10.64 1.77 6.78-.34 14.6-2.37 8.78-11.35 10.31-6.74 1.15-12.02-2.97zm81.99-27.54q3.7-5.14 9.25-5.59 5.37-.44 9.13 3.18 3.72 3.58 3.6 9.64a.51.51-89.4 01-.51.5l-23.99.06a.43.43-84.9 01-.42-.51q.84-4.35 2.94-7.28z"/></svg>