<svg xmlns="http://www.w3.org/2000/svg" viewBox="0 0 21 20"><path fill="#1ca8c1" fill-opacity=".996" d="M8.81 0h3.25l3.18 1.09a.84.82-82.5 01.54.72q.06 1.04-1.37.59Q6.23-.18 2.86 5.85 1 9.17 1.95 12.52q1.07 3.8 5.11 5.42 3.73 1.49 7.08.04 3.25-1.41 4.65-4.56 1.56-3.53-.36-7.62-.56-1.2-1.27-.07l-6.11 9.85a.78.77 43.7 01-1.3.02q-1.81-2.66-3.66-5.43-1.22-1.81.6-1.28.48.14.83.57 1.33 1.63 2.22 2.99a.81.8-45.6 001.35-.02L17 3.15a.63.62 36.5 01.93-.13Q20.36 5.07 21 8.56v3.25q-1.83 6.64-8.56 8.19H8.69Q1.57 18.34 0 11.19v-2.5Q1.74 1.65 8.81 0z"/></svg>