<svg xmlns="http://www.w3.org/2000/svg" viewBox="0 0 21 20"><path fill="#fd5351" fill-opacity=".992" d="M9.06 0h3l2.91.9a1.02.9 2.3 01.65.62q.39 1.3-1.68.54Q8.84.21 5.14 3.2 2.06 5.69 1.57 9.43 1.01 13.71 5 16.75q3.04 2.31 6.59 1.84 3.3-.45 5.67-2.88 3.76-3.86 1.17-9.91-.5-1.18-1.21-.08l-6.55 10.1a.42.42 43.7 01-.69.01q-1.92-2.66-3.96-5.4-1.35-1.82.38-1.5.52.1.93.51 1.47 1.44 2.48 3.23a.65.65 46.4 001.12.03l5.87-9.46a.91.91-49.6 011.46-.12Q20.24 5.44 21 8.31v3.5q-1.82 6.67-8.56 8.19H8.69Q1.61 18.31 0 11.19V8.94Q1.62 1.54 9.06 0z"/></svg>